<svg width="882" height="244" viewBox="0 0 882 244" fill="none" xmlns="http://www.w3.org/2000/svg">
<rect width="882" height="244" fill="white"/>
<path d="M62.0931 154.81C61.2683 154.81 60.5467 154.5 59.928 153.881C59.3094 153.263 59 152.541 59 151.716V49.6392C59 48.8144 59.3094 48.0941 59.928 47.4745C60.5467 46.8569 61.2683 46.5471 62.0931 46.5471H92.252C96.4794 46.5471 100.088 49.2268 103.078 54.5883C106.068 59.8471 108.285 66.7556 109.729 75.3138C111.275 83.872 112.049 92.9452 112.049 102.533C112.049 111.711 111.327 120.267 109.883 128.208C108.543 136.147 106.481 142.59 103.697 147.539C101.016 152.386 97.7169 154.81 93.7987 154.81H62.0931ZM86.9936 137.179C89.2619 137.179 91.0148 133.775 92.252 126.971C93.5925 120.165 94.2626 112.071 94.2626 102.688C94.2626 92.3779 93.4895 83.355 91.9428 75.6236C90.4993 67.8902 88.4887 64.0236 85.911 64.0236H76.4767V137.179H86.9936Z" fill="#508ED9"/>
<path d="M139.836 154.81C139.01 154.81 138.289 154.5 137.67 153.881C137.052 153.263 136.742 152.541 136.742 151.716V49.6392C136.742 48.8144 137.052 48.0941 137.67 47.4745C138.289 46.8569 139.01 46.5471 139.836 46.5471H176.49C177.315 46.5471 178.037 46.8569 178.655 47.4745C179.274 48.0941 179.584 48.8144 179.584 49.6392V61.0844C179.584 61.9092 179.274 62.6314 178.655 63.2491C178.037 63.8687 177.315 64.1785 176.49 64.1785H154.374V92.3256H166.747C167.572 92.3256 168.294 92.6354 168.912 93.255C169.531 93.8727 169.839 94.5949 169.839 95.4197V107.02C169.839 107.845 169.531 108.565 168.912 109.184C168.294 109.802 167.572 110.112 166.747 110.112H154.374V137.486L154.527 137.179H176.49C177.315 137.179 178.037 137.486 178.655 138.106C179.274 138.724 179.584 139.446 179.584 140.271V151.716C179.584 152.541 179.274 153.263 178.655 153.881C178.037 154.5 177.315 154.81 176.49 154.81H139.836Z" fill="#508ED9"/>
<path d="M208.969 154.81C208.142 154.81 207.422 154.5 206.802 153.881C206.185 153.263 205.875 152.541 205.875 151.716V49.6392C205.875 48.8144 206.185 48.0941 206.802 47.4745C207.422 46.8569 208.142 46.5471 208.969 46.5471H220.412C221.237 46.5471 221.959 46.8569 222.579 47.4745C223.197 48.0941 223.506 48.8144 223.506 49.6392V137.334H245.777C246.602 137.334 247.324 137.641 247.942 138.261C248.561 138.879 248.871 139.601 248.871 140.426V151.716C248.871 152.541 248.561 153.263 247.942 153.881C247.324 154.5 246.602 154.81 245.777 154.81H208.969Z" fill="#508ED9"/>
<path d="M275.227 154.81C274.402 154.81 273.68 154.5 273.06 153.881C272.443 153.263 272.133 152.541 272.133 151.716V49.6392C272.133 48.8144 272.443 48.0941 273.06 47.4745C273.68 46.8569 274.402 46.5471 275.227 46.5471H286.672C287.497 46.5471 288.217 46.8569 288.837 47.4745C289.454 48.0941 289.764 48.8144 289.764 49.6392V151.716C289.764 152.541 289.454 153.263 288.837 153.881C288.217 154.5 287.497 154.81 286.672 154.81H275.227Z" fill="#508ED9"/>
<path d="M331.821 154.81C330.996 154.81 330.326 154.551 329.811 154.036C329.296 153.52 328.986 152.901 328.884 152.181L313.572 50.4137C313.365 49.3817 313.572 48.5065 314.19 47.7843C314.912 46.9595 315.789 46.5471 316.819 46.5471H327.492C328.316 46.5471 328.986 46.8046 329.501 47.3196C330.121 47.8347 330.481 48.4543 330.584 49.1765L342.339 126.661L354.094 49.1765C354.196 48.4543 354.506 47.8347 355.021 47.3196C355.536 46.8046 356.206 46.5471 357.031 46.5471H367.703C368.733 46.5471 369.558 46.9595 370.178 47.7843C370.898 48.5065 371.158 49.3817 370.95 50.4137L355.794 152.181C355.691 152.901 355.381 153.52 354.866 154.036C354.351 154.551 353.679 154.81 352.854 154.81H331.821Z" fill="#508ED9"/>
<path d="M397.786 154.81C396.961 154.81 396.238 154.5 395.621 153.881C395.001 153.263 394.691 152.541 394.691 151.716V49.6392C394.691 48.8144 395.001 48.0941 395.621 47.4745C396.238 46.8569 396.961 46.5471 397.786 46.5471H434.44C435.265 46.5471 435.988 46.8569 436.605 47.4745C437.225 48.0941 437.533 48.8144 437.533 49.6392V61.0844C437.533 61.9092 437.225 62.6314 436.605 63.2491C435.988 63.8687 435.265 64.1785 434.44 64.1785H412.323V92.3256H424.697C425.522 92.3256 426.242 92.6354 426.862 93.255C427.48 93.8727 427.789 94.5949 427.789 95.4197V107.02C427.789 107.845 427.48 108.565 426.862 109.184C426.242 109.802 425.522 110.112 424.697 110.112H412.323V137.486L412.478 137.179H434.44C435.265 137.179 435.988 137.486 436.605 138.106C437.225 138.724 437.533 139.446 437.533 140.271V151.716C437.533 152.541 437.225 153.263 436.605 153.881C435.988 154.5 435.265 154.81 434.44 154.81H397.786Z" fill="#508ED9"/>
<path d="M466.918 154.81C466.093 154.81 465.373 154.5 464.754 153.881C464.136 153.263 463.826 152.541 463.826 151.716V49.6392C463.826 48.8144 464.136 48.0941 464.754 47.4745C465.373 46.8569 466.093 46.5471 466.918 46.5471H490.736C501.151 46.5471 508.78 49.2268 513.626 54.5883C518.473 59.8471 520.895 68.1478 520.895 79.4903C520.895 88.3563 519.452 95.3674 516.566 100.524C513.781 105.575 509.297 109.03 503.111 110.886L518.885 149.861C519.09 150.479 519.195 150.994 519.195 151.406C519.195 152.335 518.833 153.16 518.113 153.881C517.39 154.5 516.513 154.81 515.483 154.81H503.883C502.646 154.81 501.769 154.243 501.254 153.108L484.86 112.432H481.458V151.716C481.458 152.541 481.148 153.263 480.528 153.881C479.911 154.5 479.188 154.81 478.363 154.81H466.918ZM493.211 95.1099C497.439 95.1099 500.171 93.8727 501.409 91.3981C502.748 88.821 503.418 84.8517 503.418 79.4903C503.418 74.1269 502.748 70.2099 501.409 67.7354C500.171 65.1582 497.439 63.8687 493.211 63.8687H481.458V95.1099H493.211Z" fill="#508ED9"/>
<path d="M564.703 154.81C563.878 154.81 563.156 154.5 562.539 153.881C561.919 153.263 561.611 152.541 561.611 151.716V101.141L541.505 51.4961C541.298 50.8765 541.195 50.3615 541.195 49.949C541.195 49.0216 541.555 48.2471 542.278 47.6294C543 46.9072 543.875 46.5471 544.907 46.5471H555.578C556.815 46.5471 557.692 47.1647 558.207 48.402L570.427 80.4177L582.644 48.402C583.159 47.1647 584.037 46.5471 585.274 46.5471H595.79C596.822 46.5471 597.699 46.9072 598.419 47.6294C599.141 48.2471 599.501 49.0216 599.501 49.949C599.501 50.3615 599.399 50.8765 599.193 51.4961L579.242 101.141V151.716C579.242 152.541 578.933 153.263 578.313 153.881C577.695 154.5 576.973 154.81 576.148 154.81H564.703Z" fill="#508ED9"/>
<path d="M624.364 154.81C623.539 154.81 622.817 154.5 622.197 153.881C621.579 153.263 621.27 152.541 621.27 151.716V49.6392C621.27 48.8144 621.579 48.0941 622.197 47.4745C622.817 46.8569 623.539 46.5471 624.364 46.5471H661.017C661.841 46.5471 662.564 46.8569 663.183 47.4745C663.801 48.0941 664.111 48.8144 664.111 49.6392V61.0844C664.111 61.9092 663.801 62.6314 663.183 63.2491C662.564 63.8687 661.841 64.1785 661.017 64.1785H638.901V92.3256H651.274C652.098 92.3256 652.821 92.6354 653.438 93.255C654.058 93.8727 654.368 94.5949 654.368 95.4197V107.02C654.368 107.845 654.058 108.565 653.438 109.184C652.821 109.802 652.098 110.112 651.274 110.112H638.901V137.486L639.056 137.179H661.017C661.841 137.179 662.564 137.486 663.183 138.106C663.801 138.724 664.111 139.446 664.111 140.271V151.716C664.111 152.541 663.801 153.263 663.183 153.881C662.564 154.5 661.841 154.81 661.017 154.81H624.364Z" fill="#508ED9"/>
<path d="M717.469 156.665C709.633 156.665 703.189 154.19 698.136 149.241C693.084 144.19 690.507 137.024 690.402 127.743V73.7667C690.402 67.683 691.692 62.4765 694.269 58.1471C696.848 53.8157 700.147 50.5686 704.169 48.402C708.293 46.1346 712.623 45 717.159 45C724.893 45 731.286 47.4745 736.338 52.4235C741.492 57.3726 744.379 64.5909 744.999 74.0765V74.3863C744.999 75.3138 744.689 76.0863 744.071 76.7059C743.451 77.221 742.729 77.4785 741.904 77.4785H730.769C729.944 77.4785 729.224 77.221 728.604 76.7059C728.089 76.0863 727.78 75.3138 727.677 74.3863C727.057 66.2406 723.81 62.1667 717.934 62.1667C715.252 62.1667 712.932 63.4563 710.973 66.0334C709.014 68.6125 708.034 72.117 708.034 76.551V124.959C708.138 134.549 711.488 139.343 718.087 139.343C721.283 139.343 723.708 138.158 725.357 135.786C727.007 133.415 727.832 129.96 727.832 125.424L727.677 119.702H724.273C723.448 119.702 722.728 119.392 722.108 118.773C721.491 118.155 721.181 117.433 721.181 116.608V105.318C721.181 104.493 721.491 103.771 722.108 103.153C722.728 102.533 723.448 102.224 724.273 102.224H742.059C742.884 102.224 743.606 102.533 744.226 103.153C744.844 103.771 745.153 104.493 745.153 105.318V125.888C745.051 135.786 742.421 143.415 737.265 148.777C732.111 154.035 725.512 156.665 717.469 156.665Z" fill="#508ED9"/>
<path d="M789.02 154.81C788.195 154.81 787.473 154.5 786.853 153.881C786.235 153.263 785.925 152.541 785.925 151.716V101.141L765.82 51.4961C765.614 50.8765 765.51 50.3615 765.51 49.949C765.51 49.0216 765.872 48.2471 766.594 47.6294C767.314 46.9072 768.192 46.5471 769.222 46.5471H779.894C781.131 46.5471 782.009 47.1647 782.524 48.402L794.741 80.4177L806.959 48.402C807.476 47.1647 808.351 46.5471 809.588 46.5471H820.106C821.136 46.5471 822.013 46.9072 822.735 47.6294C823.458 48.2471 823.818 49.0216 823.818 49.949C823.818 50.3615 823.715 50.8765 823.508 51.4961L803.557 101.141V151.716C803.557 152.541 803.247 153.263 802.629 153.881C802.01 154.5 801.29 154.81 800.465 154.81H789.02Z" fill="#508ED9"/>
<path d="M135.557 176.51H145.997C146.351 176.51 146.657 176.639 146.915 176.897C147.172 177.154 147.302 177.46 147.302 177.815C147.302 178.169 147.172 178.475 146.915 178.734C146.657 178.992 146.351 179.12 145.997 179.12H136.862V186.95H143.387C143.741 186.95 144.047 187.079 144.305 187.337C144.562 187.595 144.692 187.9 144.692 188.255C144.692 188.609 144.562 188.915 144.305 189.173C144.047 189.43 143.741 189.56 143.387 189.56H136.862V197.39H145.997C146.351 197.39 146.657 197.518 146.915 197.775C147.172 198.033 147.302 198.341 147.302 198.695C147.302 199.049 147.172 199.355 146.915 199.613C146.657 199.87 146.351 200 145.997 200H135.557C135.202 200 134.897 199.87 134.639 199.613C134.381 199.355 134.252 199.049 134.252 198.695V177.815C134.252 177.46 134.381 177.154 134.639 176.897C134.897 176.639 135.202 176.51 135.557 176.51Z" fill="#508ED9"/>
<path d="M182.275 185.499L187.35 177.187C187.641 176.736 188.026 176.51 188.51 176.51C188.864 176.51 189.17 176.639 189.428 176.897C189.685 177.154 189.815 177.46 189.815 177.815C189.815 178.072 189.751 178.299 189.622 178.492L183.823 188.013L189.864 197.92C190.024 198.178 190.106 198.437 190.106 198.695C190.106 199.049 189.976 199.355 189.718 199.613C189.461 199.87 189.155 200 188.801 200C188.317 200 187.931 199.773 187.641 199.322L182.275 190.526L176.91 199.322C176.622 199.773 176.234 200 175.75 200C175.396 200 175.09 199.87 174.833 199.613C174.575 199.355 174.445 199.049 174.445 198.695C174.445 198.437 174.527 198.178 174.687 197.92L180.728 188.013L174.929 178.492C174.8 178.299 174.736 178.072 174.736 177.815C174.736 177.46 174.865 177.154 175.123 176.897C175.381 176.639 175.686 176.51 176.041 176.51C176.525 176.51 176.91 176.736 177.201 177.187L182.275 185.499Z" fill="#508ED9"/>
<path d="M219.508 199.613C219.248 199.87 218.943 200 218.588 200C218.234 200 217.928 199.87 217.67 199.613C217.413 199.355 217.283 199.049 217.283 198.695V177.815C217.283 177.46 217.413 177.154 217.67 176.897C217.928 176.639 218.234 176.51 218.588 176.51H223.808C225.613 176.51 227.144 177.154 228.401 178.444C229.689 179.7 230.333 181.23 230.333 183.035V184.34C230.333 186.144 229.689 187.691 228.401 188.979C227.144 190.236 225.613 190.865 223.808 190.865H219.893V198.695C219.893 199.049 219.765 199.355 219.508 199.613ZM227.723 184.34V183.035C227.723 181.939 227.336 181.021 226.564 180.279C225.822 179.507 224.904 179.12 223.808 179.12H219.893V188.255H223.808C224.904 188.255 225.822 187.885 226.564 187.143C227.336 186.369 227.723 185.436 227.723 184.34Z" fill="#508ED9"/>
<path d="M267.919 184.34V183.035C267.919 181.939 267.531 181.021 266.759 180.279C266.017 179.507 265.1 179.12 264.004 179.12H260.089V188.255H264.004C265.1 188.255 266.017 187.885 266.759 187.143C267.531 186.369 267.919 185.436 267.919 184.34ZM267.967 199.129L263.81 190.865H260.089V198.695C260.089 199.049 259.961 199.355 259.703 199.613C259.444 199.87 259.138 200 258.784 200C258.429 200 258.123 199.87 257.866 199.613C257.608 199.355 257.479 199.049 257.479 198.695V177.815C257.479 177.46 257.608 177.154 257.866 176.897C258.123 176.639 258.429 176.51 258.784 176.51H264.004C265.808 176.51 267.34 177.154 268.596 178.444C269.884 179.7 270.529 181.23 270.529 183.035V184.34C270.529 185.693 270.159 186.917 269.417 188.013C268.676 189.076 267.71 189.866 266.517 190.381L270.335 197.969C270.465 198.226 270.529 198.468 270.529 198.695C270.529 199.049 270.399 199.355 270.142 199.613C269.884 199.87 269.578 200 269.224 200C268.676 200 268.258 199.71 267.967 199.129Z" fill="#508ED9"/>
<path d="M298.977 176.51H309.417C309.771 176.51 310.077 176.639 310.335 176.897C310.592 177.154 310.722 177.46 310.722 177.815C310.722 178.169 310.592 178.475 310.335 178.734C310.077 178.992 309.771 179.12 309.417 179.12H300.282V186.95H306.807C307.161 186.95 307.467 187.079 307.725 187.337C307.984 187.595 308.112 187.9 308.112 188.255C308.112 188.609 307.984 188.915 307.725 189.173C307.467 189.43 307.161 189.56 306.807 189.56H300.282V197.39H309.417C309.771 197.39 310.077 197.518 310.335 197.775C310.592 198.033 310.722 198.341 310.722 198.695C310.722 199.049 310.592 199.355 310.335 199.613C310.077 199.87 309.771 200 309.417 200H298.977C298.623 200 298.317 199.87 298.059 199.613C297.802 199.355 297.672 199.049 297.672 198.695V177.815C297.672 177.46 297.802 177.154 298.059 176.897C298.317 176.639 298.623 176.51 298.977 176.51Z" fill="#508ED9"/>
<path d="M344.392 189.56C342.588 189.56 341.043 188.931 339.753 187.674C338.496 186.386 337.867 184.839 337.867 183.035C337.867 181.23 338.496 179.7 339.753 178.444C341.043 177.154 342.588 176.51 344.392 176.51H348.307C348.662 176.51 348.968 176.639 349.225 176.897C349.485 177.154 349.612 177.46 349.612 177.815C349.612 178.169 349.485 178.475 349.225 178.734C348.968 178.992 348.662 179.12 348.307 179.12H344.392C343.296 179.12 342.363 179.507 341.589 180.279C340.849 181.021 340.477 181.939 340.477 183.035C340.477 184.131 340.849 185.064 341.589 185.838C342.363 186.58 343.296 186.95 344.392 186.95C346.197 186.95 347.728 187.595 348.985 188.882C350.273 190.139 350.917 191.67 350.917 193.475C350.917 195.279 350.273 196.825 348.985 198.114C347.728 199.371 346.197 200 344.392 200H339.172C338.818 200 338.512 199.87 338.254 199.613C337.997 199.355 337.867 199.049 337.867 198.695C337.867 198.341 337.997 198.033 338.254 197.775C338.512 197.518 338.818 197.39 339.172 197.39H344.392C345.488 197.39 346.406 197.018 347.148 196.279C347.92 195.504 348.307 194.571 348.307 193.475C348.307 192.379 347.92 191.461 347.148 190.72C346.406 189.947 345.488 189.56 344.392 189.56Z" fill="#508ED9"/>
<path d="M383.738 189.56C381.935 189.56 380.388 188.931 379.099 187.674C377.842 186.386 377.215 184.839 377.215 183.035C377.215 181.23 377.842 179.7 379.099 178.444C380.388 177.154 381.935 176.51 383.738 176.51H387.653C388.007 176.51 388.315 176.639 388.573 176.897C388.83 177.154 388.958 177.46 388.958 177.815C388.958 178.169 388.83 178.475 388.573 178.734C388.315 178.992 388.007 179.12 387.653 179.12H383.738C382.644 179.12 381.709 179.507 380.936 180.279C380.195 181.021 379.825 181.939 379.825 183.035C379.825 184.131 380.195 185.064 380.936 185.838C381.709 186.58 382.644 186.95 383.738 186.95C385.543 186.95 387.074 187.595 388.331 188.882C389.618 190.139 390.263 191.67 390.263 193.475C390.263 195.279 389.618 196.825 388.331 198.114C387.074 199.371 385.543 200 383.738 200H378.52C378.166 200 377.86 199.87 377.6 199.613C377.343 199.355 377.215 199.049 377.215 198.695C377.215 198.341 377.343 198.033 377.6 197.775C377.86 197.518 378.166 197.39 378.52 197.39H383.738C384.834 197.39 385.754 197.018 386.493 196.279C387.268 195.504 387.653 194.571 387.653 193.475C387.653 192.379 387.268 191.461 386.493 190.72C385.754 189.947 384.834 189.56 383.738 189.56Z" fill="#508ED9"/>
<path d="M449.78 179.12V197.39H453.695C454.791 197.39 455.709 197.018 456.45 196.279C457.225 195.504 457.61 194.571 457.61 193.475V183.035C457.61 181.939 457.225 181.021 456.45 180.279C455.709 179.507 454.791 179.12 453.695 179.12H449.78ZM453.695 200H448.475C448.121 200 447.815 199.87 447.557 199.613C447.3 199.355 447.172 199.049 447.172 198.695V177.815C447.172 177.46 447.3 177.154 447.557 176.897C447.815 176.639 448.121 176.51 448.475 176.51H453.695C455.5 176.51 457.031 177.154 458.288 178.444C459.575 179.7 460.22 181.23 460.22 183.035V193.475C460.22 195.279 459.575 196.825 458.288 198.114C457.031 199.371 455.5 200 453.695 200Z" fill="#508ED9"/>
<path d="M488.67 176.51H499.11C499.465 176.51 499.771 176.639 500.028 176.897C500.288 177.154 500.416 177.46 500.416 177.815C500.416 178.169 500.288 178.475 500.028 178.734C499.771 178.992 499.465 179.12 499.11 179.12H489.975V186.95H496.5C496.855 186.95 497.161 187.079 497.42 187.337C497.678 187.595 497.806 187.9 497.806 188.255C497.806 188.609 497.678 188.915 497.42 189.173C497.161 189.43 496.855 189.56 496.5 189.56H489.975V197.39H499.11C499.465 197.39 499.771 197.518 500.028 197.775C500.288 198.033 500.416 198.341 500.416 198.695C500.416 199.049 500.288 199.355 500.028 199.613C499.771 199.87 499.465 200 499.11 200H488.67C488.316 200 488.01 199.87 487.753 199.613C487.495 199.355 487.367 199.049 487.367 198.695V177.815C487.367 177.46 487.495 177.154 487.753 176.897C488.01 176.639 488.316 176.51 488.67 176.51Z" fill="#508ED9"/>
<path d="M530.167 177.815V197.39H537.563C537.917 197.39 538.223 197.518 538.481 197.775C538.738 198.033 538.868 198.341 538.868 198.695C538.868 199.049 538.738 199.355 538.481 199.613C538.223 199.87 537.917 200 537.563 200H528.864C528.507 200 528.201 199.87 527.944 199.613C527.686 199.355 527.559 199.049 527.559 198.695V177.815C527.559 177.46 527.686 177.154 527.944 176.897C528.201 176.639 528.507 176.51 528.864 176.51C529.218 176.51 529.524 176.639 529.781 176.897C530.039 177.154 530.167 177.46 530.167 177.815Z" fill="#508ED9"/>
<path d="M573.887 179.12V197.39H577.802C578.156 197.39 578.462 197.518 578.72 197.775C578.977 198.033 579.107 198.341 579.107 198.695C579.107 199.049 578.977 199.355 578.72 199.613C578.462 199.87 578.156 200 577.802 200H567.362C567.007 200 566.701 199.87 566.444 199.613C566.186 199.355 566.057 199.049 566.057 198.695C566.057 198.341 566.186 198.033 566.444 197.775C566.701 197.518 567.007 197.39 567.362 197.39H571.277V179.12H567.362C567.007 179.12 566.701 178.992 566.444 178.734C566.186 178.475 566.057 178.169 566.057 177.815C566.057 177.46 566.186 177.154 566.444 176.897C566.701 176.639 567.007 176.51 567.362 176.51H577.802C578.156 176.51 578.462 176.639 578.72 176.897C578.977 177.154 579.107 177.46 579.107 177.815C579.107 178.169 578.977 178.475 578.72 178.734C578.462 178.992 578.156 179.12 577.802 179.12H573.887Z" fill="#508ED9"/>
<path d="M615.625 198.935C615.432 199.646 614.996 200 614.32 200C613.642 200 613.209 199.646 613.015 198.935L606.587 178.299C606.426 177.815 606.474 177.396 606.732 177.042C607.021 176.688 607.375 176.51 607.795 176.51C608.471 176.51 608.891 176.815 609.052 177.429L614.32 194.344L619.587 177.429C619.749 176.815 620.168 176.51 620.843 176.51C621.263 176.51 621.602 176.688 621.86 177.042C622.148 177.396 622.214 177.815 622.052 178.299L615.625 198.935Z" fill="#508ED9"/>
<path d="M650.393 176.51H660.833C661.187 176.51 661.493 176.639 661.751 176.897C662.008 177.154 662.138 177.46 662.138 177.815C662.138 178.169 662.008 178.475 661.751 178.734C661.493 178.992 661.187 179.12 660.833 179.12H651.698V186.95H658.223C658.577 186.95 658.883 187.079 659.141 187.337C659.398 187.595 659.528 187.9 659.528 188.255C659.528 188.609 659.398 188.915 659.141 189.173C658.883 189.43 658.577 189.56 658.223 189.56H651.698V197.39H660.833C661.187 197.39 661.493 197.518 661.751 197.775C662.008 198.033 662.138 198.341 662.138 198.695C662.138 199.049 662.008 199.355 661.751 199.613C661.493 199.87 661.187 200 660.833 200H650.393C650.039 200 649.733 199.87 649.475 199.613C649.218 199.355 649.088 199.049 649.088 198.695V177.815C649.088 177.46 649.218 177.154 649.475 176.897C649.733 176.639 650.039 176.51 650.393 176.51Z" fill="#508ED9"/>
<path d="M699.721 184.34V183.035C699.721 181.939 699.334 181.021 698.562 180.279C697.82 179.507 696.902 179.12 695.806 179.12H691.891V188.255H695.806C696.902 188.255 697.82 187.885 698.562 187.143C699.334 186.369 699.721 185.436 699.721 184.34ZM699.77 199.129L695.613 190.865H691.891V198.695C691.891 199.049 691.763 199.355 691.504 199.613C691.246 199.87 690.941 200 690.586 200C690.232 200 689.926 199.87 689.668 199.613C689.411 199.355 689.281 199.049 689.281 198.695V177.815C689.281 177.46 689.411 177.154 689.668 176.897C689.926 176.639 690.232 176.51 690.586 176.51H695.806C697.611 176.51 699.141 177.154 700.397 178.444C701.687 179.7 702.331 181.23 702.331 183.035V184.34C702.331 185.693 701.96 186.917 701.22 188.013C700.479 189.076 699.512 189.866 698.32 190.381L702.138 197.969C702.268 198.226 702.331 198.468 702.331 198.695C702.331 199.049 702.202 199.355 701.944 199.613C701.687 199.87 701.381 200 701.027 200C700.479 200 700.06 199.71 699.77 199.129Z" fill="#508ED9"/>
<path d="M736.455 187.095L741.869 177.139C742.093 176.719 742.465 176.51 742.98 176.51C743.335 176.51 743.641 176.639 743.898 176.897C744.156 177.154 744.285 177.46 744.285 177.815C744.285 178.041 744.237 178.25 744.14 178.444L737.76 190.187V198.695C737.76 199.049 737.632 199.355 737.373 199.613C737.115 199.87 736.809 200 736.455 200C736.101 200 735.795 199.87 735.537 199.613C735.28 199.355 735.15 199.049 735.15 198.695V190.187L728.77 178.444C728.673 178.25 728.625 178.041 728.625 177.815C728.625 177.46 728.755 177.154 729.012 176.897C729.27 176.639 729.576 176.51 729.93 176.51C730.447 176.51 730.817 176.719 731.043 177.139L736.455 187.095Z" fill="#508ED9"/>
</svg>
