<svg viewBox="0 0 24 24" class="NavigationLinkWithLocale__icon" fill="currentColor"><path fill-rule="evenodd" clip-rule="evenodd" d="M21.517 8.648A6.656 6.656 0 0014.87 2a1 1 0 110-2 8.658 8.658 0 018.648 8.648 1 1 0 11-2 0zM7.854 3.868c.443 0 .8.214.8.478L8.65 5.532a.25.25 0 01-.25.25H4.12a.25.25 0 01-.25-.25V4.346c0-.264.36-.478.8-.478h.346a.248.248 0 00.248-.25v-2.14a1 1 0 012 0V3.62a.25.25 0 00.25.248h.34zm.8 14.069h-4.78a.75.75 0 000 1.5h4.78a.75.75 0 000-1.5zm0-2.802a.75.75 0 00.75-.75H9.4a.75.75 0 00-.746-.75h-4.78a.75.75 0 000 1.5h4.78zm-4.78-4.302h4.78a.75.75 0 000-1.5h-4.78a.75.75 0 100 1.5zm18.42 10.678H23a1 1 0 010 2H1a1 1 0 110-2h.211a.25.25 0 00.25-.25V7.693a.98.98 0 01.979-.98h7.648a.98.98 0 01.978.98V21.26c0 .139.112.25.25.25h.912a.25.25 0 00.25-.25v-7.832c0-.263.214-.477.478-.477h2.868c.264 0 .478.214.478.477v7.832c0 .139.112.25.25.25h1.414a.249.249 0 00.248-.25v-7.832c0-.263.214-.477.478-.477h2.874c.264 0 .478.214.478.477v7.832c0 .139.112.25.25.25zM14.869 6.172a2.48 2.48 0 012.476 2.477 1 1 0 102 0 4.481 4.481 0 00-4.476-4.477 1 1 0 100 2z"></path></svg>