<svg xmlns="http://www.w3.org/2000/svg" viewBox="0 0 1920 692" width="1920" height="692" preserveAspectRatio="xMidYMid meet" style="width: 100%; height: 100%; transform: translate3d(0px, 0px, 0px);"><defs><clipPath id="__lottie_element_2"><rect width="1920" height="692" x="0" y="0"></rect></clipPath><clipPath id="__lottie_element_4"><path d="M0,0 L1920,0 L1920,1080 L0,1080z"></path></clipPath><filter id="__lottie_element_6"><feColorMatrix type="matrix" color-interpolation-filters="sRGB" values="0 0 0 0 0 0 0 0 0 0 0 0 0 0 0 0 0 0 1 0"></feColorMatrix></filter><clipPath id="__lottie_element_8"><path d="M0,0 L1920,0 L1920,1080 L0,1080z"></path></clipPath><clipPath id="__lottie_element_12"><path d="M0,0 L1920,0 L1920,1080 L0,1080z"></path></clipPath><clipPath id="__lottie_element_16"><path d="M0,0 L1920,0 L1920,1080 L0,1080z"></path></clipPath><clipPath id="__lottie_element_20"><path d="M0,0 L1920,0 L1920,1080 L0,1080z"></path></clipPath><clipPath id="__lottie_element_24"><path d="M0,0 L1920,0 L1920,1080 L0,1080z"></path></clipPath><mask id="__lottie_element_25"><rect fill="#ffffff" width="1920" height="1080" transform="matrix(1,0,0,1,0,0)"></rect><path fill="#000000" clip-rule="nonzero" d=" M1101,414 C1045,387 914,470 917,470 C920,470 1083,507 1099,506 C1115,505 1157,441 1101,414" fill-opacity="1"></path></mask><clipPath id="__lottie_element_28"><path d="M0,0 L1920,0 L1920,1080 L0,1080z"></path></clipPath><clipPath id="__lottie_element_32"><path d="M0,0 L1920,0 L1920,1080 L0,1080z"></path></clipPath><filter id="__lottie_element_37"><feColorMatrix type="matrix" color-interpolation-filters="sRGB" values="0 0 0 0 1 0 0 0 0 1 0 0 0 0 1 0 0 0 1 0"></feColorMatrix></filter><filter id="__lottie_element_40"><feColorMatrix type="matrix" color-interpolation-filters="sRGB" values="0 0 0 0 1 0 0 0 0 1 0 0 0 0 1 0 0 0 1 0"></feColorMatrix></filter><filter id="__lottie_element_43"><feColorMatrix type="matrix" color-interpolation-filters="sRGB" values="0 0 0 0 1 0 0 0 0 1 0 0 0 0 1 0 0 0 1 0"></feColorMatrix></filter><filter id="__lottie_element_46"><feColorMatrix type="matrix" color-interpolation-filters="sRGB" values="0 0 0 0 1 0 0 0 0 1 0 0 0 0 1 0 0 0 1 0"></feColorMatrix></filter><filter id="__lottie_element_49"><feColorMatrix type="matrix" color-interpolation-filters="sRGB" values="0 0 0 0 1 0 0 0 0 1 0 0 0 0 1 0 0 0 1 0"></feColorMatrix></filter><filter id="__lottie_element_52"><feColorMatrix type="matrix" color-interpolation-filters="sRGB" values="0 0 0 0 1 0 0 0 0 1 0 0 0 0 1 0 0 0 1 0"></feColorMatrix></filter><filter id="__lottie_element_55"><feColorMatrix type="matrix" color-interpolation-filters="sRGB" values="0 0 0 0 1 0 0 0 0 1 0 0 0 0 1 0 0 0 1 0"></feColorMatrix></filter><filter id="__lottie_element_58"><feColorMatrix type="matrix" color-interpolation-filters="sRGB" values="0 0 0 0 1 0 0 0 0 1 0 0 0 0 1 0 0 0 1 0"></feColorMatrix></filter><filter id="__lottie_element_61"><feColorMatrix type="matrix" color-interpolation-filters="sRGB" values="0 0 0 0 1 0 0 0 0 1 0 0 0 0 1 0 0 0 1 0"></feColorMatrix></filter><filter id="__lottie_element_64"><feColorMatrix type="matrix" color-interpolation-filters="sRGB" values="0 0 0 0 1 0 0 0 0 1 0 0 0 0 1 0 0 0 1 0"></feColorMatrix></filter><filter id="__lottie_element_67"><feColorMatrix type="matrix" color-interpolation-filters="sRGB" values="0 0 0 0 1 0 0 0 0 1 0 0 0 0 1 0 0 0 1 0"></feColorMatrix></filter><filter id="__lottie_element_70"><feColorMatrix type="matrix" color-interpolation-filters="sRGB" values="0 0 0 0 1 0 0 0 0 1 0 0 0 0 1 0 0 0 1 0"></feColorMatrix></filter><filter id="__lottie_element_73"><feColorMatrix type="matrix" color-interpolation-filters="sRGB" values="0 0 0 0 1 0 0 0 0 1 0 0 0 0 1 0 0 0 1 0"></feColorMatrix></filter><filter id="__lottie_element_76"><feColorMatrix type="matrix" color-interpolation-filters="sRGB" values="0 0 0 0 1 0 0 0 0 1 0 0 0 0 1 0 0 0 1 0"></feColorMatrix></filter><filter id="__lottie_element_79"><feColorMatrix type="matrix" color-interpolation-filters="sRGB" values="0 0 0 0 1 0 0 0 0 1 0 0 0 0 1 0 0 0 1 0"></feColorMatrix></filter><filter id="__lottie_element_82"><feColorMatrix type="matrix" color-interpolation-filters="sRGB" values="0 0 0 0 1 0 0 0 0 1 0 0 0 0 1 0 0 0 1 0"></feColorMatrix></filter><filter id="__lottie_element_85"><feColorMatrix type="matrix" color-interpolation-filters="sRGB" values="0 0 0 0 1 0 0 0 0 1 0 0 0 0 1 0 0 0 1 0"></feColorMatrix></filter><filter id="__lottie_element_88"><feColorMatrix type="matrix" color-interpolation-filters="sRGB" values="0 0 0 0 1 0 0 0 0 1 0 0 0 0 1 0 0 0 1 0"></feColorMatrix></filter><filter id="__lottie_element_91"><feColorMatrix type="matrix" color-interpolation-filters="sRGB" values="0 0 0 0 1 0 0 0 0 1 0 0 0 0 1 0 0 0 1 0"></feColorMatrix></filter><filter id="__lottie_element_94"><feColorMatrix type="matrix" color-interpolation-filters="sRGB" values="0 0 0 0 1 0 0 0 0 1 0 0 0 0 1 0 0 0 1 0"></feColorMatrix></filter><filter id="__lottie_element_97"><feColorMatrix type="matrix" color-interpolation-filters="sRGB" values="0 0 0 0 1 0 0 0 0 1 0 0 0 0 1 0 0 0 1 0"></feColorMatrix></filter><filter id="__lottie_element_100"><feColorMatrix type="matrix" color-interpolation-filters="sRGB" values="0 0 0 0 1 0 0 0 0 1 0 0 0 0 1 0 0 0 1 0"></feColorMatrix></filter><filter id="__lottie_element_103"><feColorMatrix type="matrix" color-interpolation-filters="sRGB" values="0 0 0 0 1 0 0 0 0 1 0 0 0 0 1 0 0 0 1 0"></feColorMatrix></filter><filter id="__lottie_element_106"><feColorMatrix type="matrix" color-interpolation-filters="sRGB" values="0 0 0 0 1 0 0 0 0 1 0 0 0 0 1 0 0 0 1 0"></feColorMatrix></filter><filter id="__lottie_element_109"><feColorMatrix type="matrix" color-interpolation-filters="sRGB" values="0 0 0 0 1 0 0 0 0 1 0 0 0 0 1 0 0 0 1 0"></feColorMatrix></filter><filter id="__lottie_element_112"><feColorMatrix type="matrix" color-interpolation-filters="sRGB" values="0 0 0 0 1 0 0 0 0 1 0 0 0 0 1 0 0 0 1 0"></feColorMatrix></filter><filter id="__lottie_element_115"><feColorMatrix type="matrix" color-interpolation-filters="sRGB" values="0 0 0 0 1 0 0 0 0 1 0 0 0 0 1 0 0 0 1 0"></feColorMatrix></filter><filter id="__lottie_element_118"><feColorMatrix type="matrix" color-interpolation-filters="sRGB" values="0 0 0 0 1 0 0 0 0 1 0 0 0 0 1 0 0 0 1 0"></feColorMatrix></filter><filter id="__lottie_element_121"><feColorMatrix type="matrix" color-interpolation-filters="sRGB" values="0 0 0 0 1 0 0 0 0 1 0 0 0 0 1 0 0 0 1 0"></feColorMatrix></filter><filter id="__lottie_element_124"><feColorMatrix type="matrix" color-interpolation-filters="sRGB" values="0 0 0 0 1 0 0 0 0 1 0 0 0 0 1 0 0 0 1 0"></feColorMatrix></filter><filter id="__lottie_element_127"><feColorMatrix type="matrix" color-interpolation-filters="sRGB" values="0 0 0 0 1 0 0 0 0 1 0 0 0 0 1 0 0 0 1 0"></feColorMatrix></filter><filter id="__lottie_element_130"><feColorMatrix type="matrix" color-interpolation-filters="sRGB" values="0 0 0 0 1 0 0 0 0 1 0 0 0 0 1 0 0 0 1 0"></feColorMatrix></filter><filter id="__lottie_element_133"><feColorMatrix type="matrix" color-interpolation-filters="sRGB" values="0 0 0 0 1 0 0 0 0 1 0 0 0 0 1 0 0 0 1 0"></feColorMatrix></filter><filter id="__lottie_element_136"><feColorMatrix type="matrix" color-interpolation-filters="sRGB" values="0 0 0 0 1 0 0 0 0 1 0 0 0 0 1 0 0 0 1 0"></feColorMatrix></filter><filter id="__lottie_element_139"><feColorMatrix type="matrix" color-interpolation-filters="sRGB" values="0 0 0 0 1 0 0 0 0 1 0 0 0 0 1 0 0 0 1 0"></feColorMatrix></filter><filter id="__lottie_element_142"><feColorMatrix type="matrix" color-interpolation-filters="sRGB" values="0 0 0 0 1 0 0 0 0 1 0 0 0 0 1 0 0 0 1 0"></feColorMatrix></filter><filter id="__lottie_element_145"><feColorMatrix type="matrix" color-interpolation-filters="sRGB" values="0 0 0 0 1 0 0 0 0 1 0 0 0 0 1 0 0 0 1 0"></feColorMatrix></filter><filter id="__lottie_element_151"><feColorMatrix type="matrix" color-interpolation-filters="sRGB" values="0 0 0 0 1 0 0 0 0 1 0 0 0 0 1 0 0 0 1 0"></feColorMatrix></filter><filter id="__lottie_element_154"><feColorMatrix type="matrix" color-interpolation-filters="sRGB" values="0 0 0 0 1 0 0 0 0 1 0 0 0 0 1 0 0 0 1 0"></feColorMatrix></filter><filter id="__lottie_element_157"><feColorMatrix type="matrix" color-interpolation-filters="sRGB" values="0 0 0 0 1 0 0 0 0 1 0 0 0 0 1 0 0 0 1 0"></feColorMatrix></filter><filter id="__lottie_element_160"><feColorMatrix type="matrix" color-interpolation-filters="sRGB" values="0 0 0 0 1 0 0 0 0 1 0 0 0 0 1 0 0 0 1 0"></feColorMatrix></filter><clipPath id="__lottie_element_165"><path d="M0,0 L1920,0 L1920,1080 L0,1080z"></path></clipPath><clipPath id="__lottie_element_169"><path d="M0,0 L1920,0 L1920,1080 L0,1080z"></path></clipPath><clipPath id="__lottie_element_173"><path d="M0,0 L1920,0 L1920,1080 L0,1080z"></path></clipPath><clipPath id="__lottie_element_177"><path d="M0,0 L1920,0 L1920,1080 L0,1080z"></path></clipPath><clipPath id="__lottie_element_181"><path d="M0,0 L1920,0 L1920,1080 L0,1080z"></path></clipPath><mask id="__lottie_element_182"><rect fill="#ffffff" width="1920" height="1080" transform="matrix(1,0,0,1,0,0)"></rect><path fill="#000000" clip-rule="nonzero" d=" M1101,414 C1045,387 914,470 917,470 C920,470 1083,507 1099,506 C1115,505 1157,441 1101,414" fill-opacity="1"></path></mask><clipPath id="__lottie_element_185"><path d="M0,0 L1920,0 L1920,1080 L0,1080z"></path></clipPath><clipPath id="__lottie_element_189"><path d="M0,0 L1920,0 L1920,1080 L0,1080z"></path></clipPath><filter id="__lottie_element_194"><feColorMatrix type="matrix" color-interpolation-filters="sRGB" values="0 0 0 0 1 0 0 0 0 1 0 0 0 0 1 0 0 0 1 0"></feColorMatrix></filter><filter id="__lottie_element_197"><feColorMatrix type="matrix" color-interpolation-filters="sRGB" values="0 0 0 0 1 0 0 0 0 1 0 0 0 0 1 0 0 0 1 0"></feColorMatrix></filter><filter id="__lottie_element_200"><feColorMatrix type="matrix" color-interpolation-filters="sRGB" values="0 0 0 0 1 0 0 0 0 1 0 0 0 0 1 0 0 0 1 0"></feColorMatrix></filter><filter id="__lottie_element_203"><feColorMatrix type="matrix" color-interpolation-filters="sRGB" values="0 0 0 0 1 0 0 0 0 1 0 0 0 0 1 0 0 0 1 0"></feColorMatrix></filter><filter id="__lottie_element_206"><feColorMatrix type="matrix" color-interpolation-filters="sRGB" values="0 0 0 0 1 0 0 0 0 1 0 0 0 0 1 0 0 0 1 0"></feColorMatrix></filter><filter id="__lottie_element_209"><feColorMatrix type="matrix" color-interpolation-filters="sRGB" values="0 0 0 0 1 0 0 0 0 1 0 0 0 0 1 0 0 0 1 0"></feColorMatrix></filter><filter id="__lottie_element_212"><feColorMatrix type="matrix" color-interpolation-filters="sRGB" values="0 0 0 0 1 0 0 0 0 1 0 0 0 0 1 0 0 0 1 0"></feColorMatrix></filter><filter id="__lottie_element_215"><feColorMatrix type="matrix" color-interpolation-filters="sRGB" values="0 0 0 0 1 0 0 0 0 1 0 0 0 0 1 0 0 0 1 0"></feColorMatrix></filter></defs><g clip-path="url(#__lottie_element_2)"><g clip-path="url(#__lottie_element_4)" filter="url(#__lottie_element_6)" transform="matrix(1,0,0,1,0,-197)" opacity="1" style="display: block;"><g clip-path="url(#__lottie_element_165)" transform="matrix(1,0,0,1,0,0)" opacity="1" style="display: none;"><g clip-path="url(#__lottie_element_169)" transform="matrix(1,0,0,1,0,0)" opacity="1" style="display: block;"><g filter="url(#__lottie_element_194)" transform="matrix(2.940000057220459,0,0,2.940000057220459,389.16998291015625,333.260009765625)" opacity="1" style="display: block;"><g opacity="1" transform="matrix(1,0,0,1,79.33499908447266,71.13200378417969)"><path fill="rgb(35,31,31)" fill-opacity="1" d="M0 0"></path></g><g opacity="1" transform="matrix(1,0,0,1,273.4599914550781,70.88999938964844)"><path fill="rgb(35,31,31)" fill-opacity="1" d=" M102.697998046875,-10.487000465393066 C108.95899963378906,-10.630999565124512 113.39199829101562,-12.541000366210938 114.47699737548828,-18.48900032043457 C115.12100219726562,-22.030000686645508 113.0469970703125,-24.292999267578125 109.02100372314453,-24.474000930786133 C109.02100372314453,-24.474000930786133 97.34300231933594,-25.09000015258789 83.8949966430664,-25.68400001525879 C83.8949966430664,-25.68400001525879 63.89699935913086,-26.5049991607666 58.31800079345703,-26.618999481201172 C53.327999114990234,-26.738000869750977 48.48500061035156,-26.77899932861328 45.11600112915039,-26.7189998626709 C41.97700119018555,-26.663000106811523 40.5,-25.058000564575195 39.85599899291992,-22.47100067138672 C39.2130012512207,-19.884000778198242 38.6870002746582,-16.209999084472656 38.474998474121094,-12.392000198364258 C38.31399917602539,-9.494999885559082 41.46500015258789,-8.125 44.7140007019043,-8.244000434875488 C44.7140007019043,-8.244000434875488 48.70600128173828,-8.425000190734863 54.95100021362305,-8.725000381469727 C62.027000427246094,-8.98900032043457 81.28299713134766,-9.847999572753906 81.28299713134766,-9.847999572753906 C88.04399871826172,-10.092000007629395 95.55599975585938,-10.322999954223633 102.697998046875,-10.487000465393066z"></path></g></g></g><g clip-path="url(#__lottie_element_173)" transform="matrix(1,0,0,1,0,0)" opacity="1" style="display: block;"><g filter="url(#__lottie_element_197)" transform="matrix(2.940000057220459,0,0,2.940000057220459,389.16998291015625,333.260009765625)" opacity="1" style="display: block;"><g opacity="1" transform="matrix(1,0,0,1,79.33499908447266,71.13200378417969)"><path fill="rgb(35,31,31)" fill-opacity="1" d="M0 0"></path></g><g opacity="1" transform="matrix(1,0,0,1,273.4599914550781,70.88999938964844)"><path fill="rgb(35,31,31)" fill-opacity="1" d=" M83.8949966430664,-25.68400001525879 C83.8949966430664,-25.68400001525879 86.61499786376953,-40.608001708984375 87.94599914550781,-46.68899917602539 C88.5989990234375,-49.67399978637695 87.02200317382812,-52.62699890136719 83.26000213623047,-53.540000915527344 C79.52300262451172,-54.44599914550781 70.93900299072266,-54.50600051879883 68.05799865722656,-54.18299865722656 C65.6510009765625,-53.91400146484375 63.3120002746582,-52.474998474121094 62.76900100708008,-49.979000091552734 C61.41299819946289,-43.7400016784668 60,-36.23500061035156 58.31800079345703,-26.618999481201172 C57.433998107910156,-22.16900062561035 55.73400115966797,-14.175999641418457 54.95100021362305,-8.725000381469727 C53.792999267578125,-3.259000062942505 51.57899856567383,11.413000106811523 50.60499954223633,20.518999099731445 C49.441001892089844,31.402999877929688 48.76100158691406,37.8650016784668 49.5260009765625,47.178001403808594 C51.731998443603516,64.04900360107422 60.53799819946289,70.71900177001953 74.86299896240234,70.71900177001953 C88.01300048828125,70.71900177001953 100.66899871826172,62.38199996948242 109.62799835205078,47.29199981689453 C111.41600036621094,44.28200149536133 112.72100067138672,41.650001525878906 111.58599853515625,40.34400177001953 C108.98300170898438,37.35200119018555 104.02100372314453,35.79899978637695 102.66400146484375,38.28200149536133 C96.75299835205078,49.099998474121094 90.40399932861328,53.45800018310547 83.49099731445312,53.45800018310547 C78.02400207519531,53.45800018310547 73.5989990234375,50.207000732421875 73.5989990234375,40.71799850463867 C73.5989990234375,27.06399917602539 81.28299713134766,-9.847999572753906 81.28299713134766,-9.847999572753906 C82.26399993896484,-14.005999565124512 83.28399658203125,-19.788000106811523 83.8949966430664,-25.68400001525879z"></path></g></g></g><g clip-path="url(#__lottie_element_177)" transform="matrix(1,0,0,1,0,0)" opacity="1" style="display: block;"><g filter="url(#__lottie_element_200)" transform="matrix(2.940000057220459,0,0,2.940000057220459,389.16998291015625,333.260009765625)" opacity="1" style="display: block;"><g opacity="1" transform="matrix(1,0,0,1,79.33499908447266,71.13200378417969)"><path fill="rgb(35,31,31)" fill-opacity="1" d="M0 0"></path></g><g opacity="1" transform="matrix(1,0,0,1,273.4599914550781,70.88999938964844)"><path fill="rgb(35,31,31)" fill-opacity="1" d=" M54.95100021362305,-8.725000381469727 C53.792999267578125,-3.259000062942505 51.481998443603516,11.402999877929688 50.60499954223633,20.518999099731445 C44.965999603271484,39.47100067138672 33.25600051879883,53.45899963378906 23.173999786376953,53.45899963378906 C16.99799919128418,53.45899963378906 13.3149995803833,49.792999267578125 13.3149995803833,38.672000885009766 C13.3149995803833,23.2810001373291 16.85099983215332,3.815999984741211 22.006999969482422,-15.692999839782715 C25.461000442504883,-33.5629997253418 29.202999114990234,-51.08000183105469 30.065000534057617,-60.625 C30.363000869750977,-63.92900085449219 32.45500183105469,-68.50499725341797 28.479000091552734,-69.29499816894531 C21.305999755859375,-70.72000122070312 14.484999656677246,-70.45700073242188 9.706999778747559,-68.96800231933594 C5.439000129699707,-67.63899993896484 4.564000129699707,-63.14799880981445 4.051000118255615,-60.75400161743164 C1.5859999656677246,-49.24599838256836 -2.4519999027252197,-28.85099983215332 -5.2779998779296875,-10.970999717712402 C-6.171000003814697,-4.822000026702881 -7.702000141143799,2.6610000133514404 -8.987000465393066,10.013999938964844 C-8.987000465393066,10.013999938964844 -13.029000282287598,30.43000030517578 -13.029000282287598,42.41600036621094 C-13.029000282287598,60.59000015258789 -5.230999946594238,70.71900177001953 13.088000297546387,70.71900177001953 C28.158000946044922,70.71900177001953 41.308998107910156,60.090999603271484 49.5260009765625,47.178001403808594 C57.263999938964844,34.29399871826172 69.03800201416016,-9.168000221252441 69.03800201416016,-9.168000221252441 C75.79900360107422,-9.411999702453613 48.70600128173828,-8.425000190734863 54.95100021362305,-8.725000381469727z"></path></g></g><g filter="url(#__lottie_element_203)" transform="matrix(2.940000057220459,0,0,2.940000057220459,389.16998291015625,333.260009765625)" opacity="1" style="display: block;"><g opacity="1" transform="matrix(1,0,0,1,79.33499908447266,71.13200378417969)"><path fill="rgb(35,31,31)" fill-opacity="1" d="M0 0"></path></g><g opacity="1" transform="matrix(1,0,0,1,273.4599914550781,70.88999938964844)"><path fill="rgb(35,31,31)" fill-opacity="1" d=" M72.53600311279297,-25.760000228881836 C72.53600311279297,-25.760000228881836 73.17900085449219,-40.61000061035156 74.51000213623047,-46.691001892089844 C75.16300201416016,-49.67599868774414 70.93900299072266,-54.50600051879883 68.05799865722656,-54.18299865722656 C65.6510009765625,-53.91400146484375 63.3120002746582,-52.474998474121094 62.76900100708008,-49.979000091552734 C61.41299819946289,-43.7400016784668 58.31800079345703,-26.618999481201172 58.31800079345703,-26.618999481201172 C58.31800079345703,-26.618999481201172 54.95100021362305,-8.725000381469727 54.95100021362305,-8.725000381469727 C54.95100021362305,-8.725000381469727 51.481998443603516,11.402999877929688 50.60499954223633,20.518999099731445 C44.965999603271484,39.47100067138672 33.25600051879883,53.45899963378906 23.173999786376953,53.45899963378906 C16.99799919128418,53.45899963378906 13.3149995803833,49.792999267578125 13.3149995803833,38.672000885009766 C13.3149995803833,23.2810001373291 -13.029000282287598,30.43000030517578 -13.029000282287598,42.41600036621094 C-13.029000282287598,60.59000015258789 -5.230999946594238,70.71900177001953 13.088000297546387,70.71900177001953 C28.158000946044922,70.71900177001953 41.308998107910156,60.090999603271484 49.5260009765625,47.178001403808594 C62.1510009765625,23.507999420166016 69.33799743652344,-7.85699987411499 69.33799743652344,-7.85699987411499 C69.33799743652344,-7.85699987411499 72.53600311279297,-25.760000228881836 72.53600311279297,-25.760000228881836z"></path></g></g></g><g clip-path="url(#__lottie_element_181)" transform="matrix(1,0,0,1,0,0)" opacity="1" style="display: block;"><g mask="url(#__lottie_element_182)"><g filter="url(#__lottie_element_206)" transform="matrix(2.940000057220459,0,0,2.940000057220459,389.16998291015625,333.260009765625)" opacity="1" style="display: block;"><g opacity="1" transform="matrix(1,0,0,1,79.33499908447266,71.13200378417969)"><path fill="rgb(35,31,31)" fill-opacity="1" d="M0 0"></path></g><g opacity="1" transform="matrix(1,0,0,1,273.4599914550781,70.88999938964844)"><path fill="rgb(35,31,31)" fill-opacity="1" d=" M13.843999862670898,-22.496000289916992 C21.118999481201172,-39.99700164794922 14.484999656677246,-70.45700073242188 9.706999778747559,-68.96800231933594 C5.439000129699707,-67.63899993896484 8.815999984741211,-38.99800109863281 8.303000450134277,-36.604000091552734 C5.8379998207092285,-25.09600067138672 4.203000068664551,-24.209999084472656 -5.2779998779296875,-10.970999717712402 C-11.557999610900879,-3.369999885559082 -18.768999099731445,1.9700000286102295 -26.573999404907227,3.2860000133514404 C-48.518001556396484,5.552000045776367 -51.749000549316406,-4.48199987411499 -43.5369987487793,-18.660999298095703 C-30.735000610351562,-40.763999938964844 -47.68199920654297,-33.05699920654297 -56.02899932861328,-18.575000762939453 C-58.57400131225586,-14.159000396728516 -59.2400016784668,-9.059000015258789 -59.38800048828125,-4.051000118255615 C-59.573001861572266,2.2100000381469727 -58.551998138427734,10.144000053405762 -50.375999450683594,16 C-41.51499938964844,22.347000122070312 -34.41600036621094,21.090999603271484 -27.739999771118164,19.790000915527344 C-20.57699966430664,18.339000701904297 -14.354000091552734,14.845999717712402 -8.987000465393066,10.013999938964844 C-8.987000465393066,10.013999938964844 8.687999725341797,-2.986999988555908 13.843999862670898,-22.496000289916992z"></path></g></g><g filter="url(#__lottie_element_209)" transform="matrix(2.940000057220459,0,0,2.940000057220459,389.16998291015625,333.260009765625)" opacity="1" style="display: block;"><g opacity="1" transform="matrix(1,0,0,1,79.33499908447266,71.13200378417969)"><path fill="rgb(35,31,31)" fill-opacity="1" d="M0 0"></path></g><g opacity="1" transform="matrix(1,0,0,1,273.4599914550781,70.88999938964844)"><path fill="rgb(35,31,31)" fill-opacity="1" d=" M22.006999969482422,-15.692999839782715 C29.281999588012695,-33.194000244140625 33.465999603271484,-52.654998779296875 33.465999603271484,-61.47600173950195 C33.465999603271484,-64.79299926757812 32.45500183105469,-68.50499725341797 28.479000091552734,-69.29499816894531 C21.305999755859375,-70.72000122070312 14.484999656677246,-70.45700073242188 9.706999778747559,-68.96800231933594 C5.439000129699707,-67.63899993896484 10.687000274658203,-60.25699996948242 10.173999786376953,-57.862998962402344 C7.709000110626221,-46.35499954223633 16.85099983215332,3.815999984741211 22.006999969482422,-15.692999839782715z"></path></g></g></g></g><g clip-path="url(#__lottie_element_185)" transform="matrix(1,0,0,1,0,0)" opacity="1" style="display: block;"><g filter="url(#__lottie_element_212)" transform="matrix(2.940000057220459,0,0,2.940000057220459,389.16998291015625,333.260009765625)" opacity="1" style="display: block;"><g opacity="1" transform="matrix(1,0,0,1,79.33499908447266,71.13200378417969)"><path fill="rgb(35,31,31)" fill-opacity="1" d="M0 0"></path></g><g opacity="1" transform="matrix(1,0,0,1,273.4599914550781,70.88999938964844)"><path fill="rgb(35,31,31)" fill-opacity="1" d=" M-75.15799713134766,56.04199981689453 C-82.8239974975586,56.04199981689453 -87.95500183105469,49.435001373291016 -87.95500183105469,36.321998596191406 C-87.95500183105469,11.166000366210938 -79.00299835205078,-15.89799976348877 -62.922000885009766,-15.89799976348877 C-61.112998962402344,-15.89799976348877 -59.50699996948242,-15.656000137329102 -58.0880012512207,-15.092000007629395 C-53.025001525878906,-13.326000213623047 -49.624000549316406,4.191999912261963 -51.27399826049805,15.522000312805176 C-54.7599983215332,37.61000061035156 -64.52799987792969,56.04199981689453 -75.15799713134766,56.04199981689453z M-26.573999404907227,3.2860000133514404 C-27.78700065612793,-20.392000198364258 -41.56399917602539,-30.565000534057617 -60.54399871826172,-30.565000534057617 C-93.8759994506836,-30.565000534057617 -115.12100219726562,-0.8700000047683716 -115.12100219726562,32.459999084472656 C-115.12100219726562,59.459999084472656 -100.38899993896484,70.71900177001953 -78.94599914550781,70.71900177001953 C-53.624000549316406,70.71900177001953 -34.779998779296875,52.74700164794922 -27.739999771118164,19.790000915527344 C-26.749000549316406,13.970000267028809 -26.57900047302246,9.803999900817871 -26.573999404907227,3.2860000133514404z"></path></g></g></g><g clip-path="url(#__lottie_element_189)" transform="matrix(1,0,0,1,0,0)" opacity="1" style="display: block;"><g filter="url(#__lottie_element_215)" transform="matrix(2.940000057220459,0,0,2.940000057220459,389.16998291015625,333.260009765625)" opacity="1" style="display: block;"><g opacity="1" transform="matrix(1,0,0,1,79.33499908447266,71.13200378417969)"><path fill="rgb(35,31,31)" fill-opacity="1" d=" M66.65399932861328,-70.47699737548828 C62.22200012207031,-70.47699737548828 58.29100036621094,-70.25599670410156 56.347999572753906,-70.05500030517578 C52.47100067138672,-69.65399932861328 51.15800094604492,-65.97100067138672 51.439998626708984,-62.34600067138672 C55.520999908447266,-9.859000205993652 43.96799850463867,51.222999572753906 30.81800079345703,51.222999572753906 C21.027000427246094,51.222999572753906 18.299999237060547,22.673999786376953 18.299999237060547,-2.7209999561309814 C18.299999237060547,-17.729999542236328 19.156999588012695,-32.185001373291016 19.516000747680664,-44.959999084472656 C19.648000717163086,-49.69900131225586 17.926000595092773,-50.590999603271484 14.501999855041504,-51.00699996948242 C9.312999725341797,-51.637001037597656 5.5980000495910645,-51.63199996948242 0.44600000977516174,-50.49100112915039 C-3.490000009536743,-49.61899948120117 -4.415999889373779,-46.388999938964844 -8.555000305175781,-36.54800033569336 C-29.173999786376953,12.47599983215332 -49.064998626708984,51.85200119018555 -49.064998626708984,51.85200119018555 C-54.32400131225586,12.383000373840332 -47.57500076293945,-25.900999069213867 -41.82500076293945,-53.845001220703125 C-41.03099822998047,-57.69300079345703 -42.86600112915039,-59.965999603271484 -46.027000427246094,-59.9109992980957 C-51.97999954223633,-59.80699920654297 -61.119998931884766,-59.61600112915039 -65.24400329589844,-56.91600036621094 C-69.11100006103516,-54.3849983215332 -70.5459976196289,-51.68299865722656 -71.66200256347656,-46.09000015258789 C-78.04499816894531,-14.088000297546387 -82.1989974975586,26.055999755859375 -75.77799987792969,57.097999572753906 C-74.38999938964844,63.80699920654297 -72.83200073242188,65.39199829101562 -69.9990005493164,67.14700317382812 C-67.16600036621094,68.90299987792969 -55.00400161743164,70.47699737548828 -50.28799819946289,70.47699737548828 C-44.93299865722656,70.47699737548828 -40.02899932861328,69.03500366210938 -35.95000076293945,62.04199981689453 C-27.31399917602539,47.236000061035156 -20.39699935913086,32.448001861572266 -7.328999996185303,3.9649999141693115 C-5.982999801635742,41.07699966430664 -0.7459999918937683,70.20800018310547 25.329999923706055,70.20800018310547 C59.89099884033203,70.20800018310547 82.1989974975586,-16.139999389648438 82.1989974975586,-57.6879997253418 C82.1989974975586,-68.67900085449219 76.75,-70.47699737548828 66.65399932861328,-70.47699737548828z"></path></g></g></g></g><g clip-path="url(#__lottie_element_8)" transform="matrix(1,0,0,1,0,0)" opacity="1" style="display: block;"><g clip-path="url(#__lottie_element_12)" transform="matrix(1,0,0,1,0,0)" opacity="1" style="display: block;"><g filter="url(#__lottie_element_37)" transform="matrix(2.940000057220459,0,0,2.940000057220459,389.16998291015625,333.260009765625)" opacity="1" style="display: block;"><g opacity="1" transform="matrix(1,0,0,1,79.33499908447266,71.13200378417969)"><path fill="rgb(35,31,31)" fill-opacity="1" d="M0 0"></path></g><g opacity="1" transform="matrix(1,0,0,1,273.4599914550781,70.88999938964844)"><path fill="rgb(35,31,31)" fill-opacity="1" d=" M102.697998046875,-10.487000465393066 C108.95899963378906,-10.630999565124512 113.39199829101562,-12.541000366210938 114.47699737548828,-18.48900032043457 C115.12100219726562,-22.030000686645508 113.0469970703125,-24.292999267578125 109.02100372314453,-24.474000930786133 C109.02100372314453,-24.474000930786133 97.34300231933594,-25.09000015258789 83.8949966430664,-25.68400001525879 C83.8949966430664,-25.68400001525879 63.89699935913086,-26.5049991607666 58.31800079345703,-26.618999481201172 C53.327999114990234,-26.738000869750977 48.48500061035156,-26.77899932861328 45.11600112915039,-26.7189998626709 C41.97700119018555,-26.663000106811523 40.5,-25.058000564575195 39.85599899291992,-22.47100067138672 C39.2130012512207,-19.884000778198242 38.6870002746582,-16.209999084472656 38.474998474121094,-12.392000198364258 C38.31399917602539,-9.494999885559082 41.46500015258789,-8.125 44.7140007019043,-8.244000434875488 C44.7140007019043,-8.244000434875488 48.70600128173828,-8.425000190734863 54.95100021362305,-8.725000381469727 C62.027000427246094,-8.98900032043457 81.28299713134766,-9.847999572753906 81.28299713134766,-9.847999572753906 C88.04399871826172,-10.092000007629395 95.55599975585938,-10.322999954223633 102.697998046875,-10.487000465393066z"></path></g></g><g filter="url(#__lottie_element_151)" transform="matrix(2.940000057220459,0,0,2.940000057220459,389.16998291015625,333.260009765625)" opacity="1" style="display: none;"><g opacity="1" transform="matrix(1,0,0,1,79.33499908447266,71.13200378417969)"><path fill="rgb(35,31,31)" fill-opacity="1" d="M0 0"></path></g><g opacity="1" transform="matrix(1,0,0,1,273.4599914550781,70.88999938964844)"><path fill="rgb(35,31,31)" fill-opacity="1" d=" M-184.0570068359375,-23.81800079345703 C-184.0570068359375,-23.81800079345703 -214.08799743652344,-24.6200008392334 -222.46499633789062,-24.753000259399414 C-229.95799255371094,-24.871999740600586 -244.1009979248047,-32.18299865722656 -245.66400146484375,-37.99599838256836 C-249.11300659179688,-50.82500076293945 -258.97698974609375,-47.25400161743164 -255.6020050048828,-29.545000076293945 C-255.05799865722656,-26.68899917602539 -254.677001953125,-21.913999557495117 -247.91900634765625,-16.856000900268555 C-247.91900634765625,-16.856000900268555 -236.4429931640625,-11.11400032043457 -227.52099609375,-10.345000267028809 C-216.88499450683594,-9.49899959564209 -188.14599609375,-11.383000373840332 -188.14599609375,-11.383000373840332 C-177.9929962158203,-11.626999855041504 -163.86199951171875,-23.224000930786133 -184.0570068359375,-23.81800079345703z"></path></g></g><g filter="url(#__lottie_element_154)" transform="matrix(2.940000057220459,0,0,2.940000057220459,389.16998291015625,333.260009765625)" opacity="1" style="display: none;"><g opacity="1" transform="matrix(1,0,0,1,79.33499908447266,71.13200378417969)"><path fill="rgb(35,31,31)" fill-opacity="1" d="M0 0"></path></g><g opacity="1" transform="matrix(1,0,0,1,273.4599914550781,70.88999938964844)"><path fill="rgb(35,31,31)" fill-opacity="1" d=" M-222.46499633789062,-24.753000259399414 C-229.95799255371094,-24.871999740600586 -244.1009979248047,-32.18299865722656 -245.66400146484375,-37.99599838256836 C-249.11300659179688,-50.82500076293945 -240.16799926757812,-56.862998962402344 -251.55499267578125,-58.48699951171875 C-254.28900146484375,-58.87699890136719 -258.97698974609375,-47.25400161743164 -255.6020050048828,-29.545000076293945 C-255.05799865722656,-26.68899917602539 -254.677001953125,-21.913999557495117 -247.91900634765625,-16.856000900268555 C-247.91900634765625,-16.856000900268555 -236.4429931640625,-11.11400032043457 -227.52099609375,-10.345000267028809 C-216.88499450683594,-9.49899959564209 -214.08799743652344,-24.6200008392334 -222.46499633789062,-24.753000259399414z"></path></g></g><g filter="url(#__lottie_element_157)" transform="matrix(2.940000057220459,0,0,2.940000057220459,389.16998291015625,333.260009765625)" opacity="1" style="display: none;"><g opacity="1" transform="matrix(1,0,0,1,79.33499908447266,71.13200378417969)"><path fill="rgb(35,31,31)" fill-opacity="1" d="M0 0"></path></g><g opacity="1" transform="matrix(1,0,0,1,273.4599914550781,70.88999938964844)"><path fill="rgb(35,31,31)" fill-opacity="1" d=" M-245.66400146484375,-37.99599838256836 C-247.7100067138672,-51.12200164794922 -240.10000610351562,-67.06700134277344 -251.48699951171875,-68.69100189208984 C-254.2209930419922,-69.08100128173828 -258.97698974609375,-47.25400161743164 -255.6020050048828,-29.545000076293945 C-255.05799865722656,-26.68899917602539 -254.677001953125,-21.913999557495117 -247.91900634765625,-16.856000900268555 C-247.91900634765625,-16.856000900268555 -236.4429931640625,-11.11400032043457 -227.52099609375,-10.345000267028809 C-216.88499450683594,-9.49899959564209 -242.906005859375,-20.29800033569336 -245.66400146484375,-37.99599838256836z"></path></g></g><g filter="url(#__lottie_element_160)" transform="matrix(2.940000057220459,0,0,2.940000057220459,389.16998291015625,333.260009765625)" opacity="1" style="display: none;"><g opacity="1" transform="matrix(1,0,0,1,79.33499908447266,71.13200378417969)"><path fill="rgb(35,31,31)" fill-opacity="1" d="M0 0"></path></g><g opacity="1" transform="matrix(1,0,0,1,273.4599914550781,70.88999938964844)"><path fill="rgb(35,31,31)" fill-opacity="1" d=" M-246.343994140625,-37.74100112915039 C-248.1840057373047,-50.89799880981445 -235.08299255371094,-68.25700378417969 -251.48699951171875,-68.69100189208984 C-263.39898681640625,-69.00599670410156 -258.2760009765625,-47.37300109863281 -255.6020050048828,-29.545000076293945 C-252.4290008544922,-8.392999649047852 -242.906005859375,-13.154999732971191 -246.343994140625,-37.74100112915039z"></path></g></g><g transform="matrix(1,0,0,1,960,540)" opacity="1" style="display: none;"><g opacity="1" transform="matrix(1,0,0,1,0,0)"><path fill="rgb(255,255,255)" fill-opacity="1" d=" M-507,-224.80032348632812 C-534.5430297851562,-222.94332885742188 -541.9185791015625,-192.8883056640625 -529.0360717773438,-161.31781005859375 C-522.6345825195312,-145.57725524902344 -521.4391479492188,-145.78536987304688 -516.5269775390625,-128.10433959960938 C-512.650146484375,-114.55914306640625 -513.4940795898438,-116.4186782836914 -510.8682556152344,-110.3101577758789 C-504.4775085449219,-99.189453125 -504.32086181640625,-98.54999542236328 -499.19598388671875,-102.60353088378906 C-495.854736328125,-105.4345474243164 -497.62811279296875,-109.22187042236328 -494.2229919433594,-122.0904312133789 C-488.9176025390625,-138.76705932617188 -492.30767822265625,-136.6178436279297 -478.09490966796875,-161.48281860351562 C-461.0203857421875,-190.96942138671875 -461.76800537109375,-227.84933471679688 -507,-224.80032348632812z"></path><path stroke-linecap="butt" stroke-linejoin="miter" fill-opacity="0" stroke-miterlimit="4" stroke="rgb(255,255,255)" stroke-opacity="1" stroke-width="0.5" d=" M-507,-224.80032348632812 C-534.5430297851562,-222.94332885742188 -541.9185791015625,-192.8883056640625 -529.0360717773438,-161.31781005859375 C-522.6345825195312,-145.57725524902344 -521.4391479492188,-145.78536987304688 -516.5269775390625,-128.10433959960938 C-512.650146484375,-114.55914306640625 -513.4940795898438,-116.4186782836914 -510.8682556152344,-110.3101577758789 C-504.4775085449219,-99.189453125 -504.32086181640625,-98.54999542236328 -499.19598388671875,-102.60353088378906 C-495.854736328125,-105.4345474243164 -497.62811279296875,-109.22187042236328 -494.2229919433594,-122.0904312133789 C-488.9176025390625,-138.76705932617188 -492.30767822265625,-136.6178436279297 -478.09490966796875,-161.48281860351562 C-461.0203857421875,-190.96942138671875 -461.76800537109375,-227.84933471679688 -507,-224.80032348632812z"></path></g></g></g><g clip-path="url(#__lottie_element_16)" transform="matrix(1,0,0,1,0,0)" opacity="1" style="display: block;"><g filter="url(#__lottie_element_40)" transform="matrix(2.940000057220459,0,0,2.940000057220459,389.16998291015625,333.260009765625)" opacity="1" style="display: block;"><g opacity="1" transform="matrix(1,0,0,1,79.33499908447266,71.13200378417969)"><path fill="rgb(35,31,31)" fill-opacity="1" d="M0 0"></path></g><g opacity="1" transform="matrix(1,0,0,1,273.4599914550781,70.88999938964844)"><path fill="rgb(35,31,31)" fill-opacity="1" d=" M83.8949966430664,-25.68400001525879 C83.8949966430664,-25.68400001525879 86.61499786376953,-40.608001708984375 87.94599914550781,-46.68899917602539 C88.5989990234375,-49.67399978637695 87.02200317382812,-52.62699890136719 83.26000213623047,-53.540000915527344 C79.52300262451172,-54.44599914550781 70.93900299072266,-54.50600051879883 68.05799865722656,-54.18299865722656 C65.6510009765625,-53.91400146484375 63.3120002746582,-52.474998474121094 62.76900100708008,-49.979000091552734 C61.41299819946289,-43.7400016784668 60,-36.23500061035156 58.31800079345703,-26.618999481201172 C57.433998107910156,-22.16900062561035 55.73400115966797,-14.175999641418457 54.95100021362305,-8.725000381469727 C53.792999267578125,-3.259000062942505 51.57899856567383,11.413000106811523 50.60499954223633,20.518999099731445 C49.441001892089844,31.402999877929688 48.76100158691406,37.8650016784668 49.5260009765625,47.178001403808594 C51.731998443603516,64.04900360107422 60.53799819946289,70.71900177001953 74.86299896240234,70.71900177001953 C88.01300048828125,70.71900177001953 100.66899871826172,62.38199996948242 109.62799835205078,47.29199981689453 C111.41600036621094,44.28200149536133 112.72100067138672,41.650001525878906 111.58599853515625,40.34400177001953 C108.98300170898438,37.35200119018555 104.02100372314453,35.79899978637695 102.66400146484375,38.28200149536133 C96.75299835205078,49.099998474121094 90.40399932861328,53.45800018310547 83.49099731445312,53.45800018310547 C78.02400207519531,53.45800018310547 73.5989990234375,50.207000732421875 73.5989990234375,40.71799850463867 C73.5989990234375,27.06399917602539 81.28299713134766,-9.847999572753906 81.28299713134766,-9.847999572753906 C82.26399993896484,-14.005999565124512 83.28399658203125,-19.788000106811523 83.8949966430664,-25.68400001525879z"></path></g></g><g filter="url(#__lottie_element_79)" transform="matrix(2.940000057220459,0,0,2.940000057220459,389.16998291015625,333.260009765625)" opacity="1" style="display: none;"><g opacity="1" transform="matrix(1,0,0,1,79.33499908447266,71.13200378417969)"><path fill="rgb(35,31,31)" fill-opacity="1" d="M0 0"></path></g><g opacity="1" transform="matrix(1,0,0,1,273.4599914550781,70.88999938964844)"><path fill="rgb(35,31,31)" fill-opacity="1" d=" M83.8949966430664,-25.68400001525879 C83.8949966430664,-25.68400001525879 86.61499786376953,-40.608001708984375 87.94599914550781,-46.68899917602539 C88.5989990234375,-49.67399978637695 87.02200317382812,-52.62699890136719 83.26000213623047,-53.540000915527344 C79.52300262451172,-54.44599914550781 70.93900299072266,-54.50600051879883 68.05799865722656,-54.18299865722656 C65.6510009765625,-53.91400146484375 63.3120002746582,-52.474998474121094 62.76900100708008,-49.979000091552734 C61.41299819946289,-43.7400016784668 60,-36.23500061035156 58.31800079345703,-26.618999481201172 C57.433998107910156,-22.16900062561035 55.73400115966797,-14.175999641418457 54.95100021362305,-8.725000381469727 C53.792999267578125,-3.259000062942505 51.57899856567383,11.413000106811523 50.60499954223633,20.518999099731445 C49.441001892089844,31.402999877929688 48.76100158691406,37.8650016784668 49.5260009765625,47.178001403808594 C51.731998443603516,64.04900360107422 60.53799819946289,70.71900177001953 74.86299896240234,70.71900177001953 C88.01300048828125,70.71900177001953 95.37200164794922,66.85800170898438 104.5250015258789,51.88399887084961 C110.49500274658203,42.117000579833984 104.02100372314453,35.79899978637695 102.66400146484375,38.28200149536133 C96.75299835205078,49.099998474121094 90.40399932861328,53.45800018310547 83.49099731445312,53.45800018310547 C78.02400207519531,53.45800018310547 73.5989990234375,50.207000732421875 73.5989990234375,40.71799850463867 C73.5989990234375,27.06399917602539 81.28299713134766,-9.847999572753906 81.28299713134766,-9.847999572753906 C82.26399993896484,-14.005999565124512 83.28399658203125,-19.788000106811523 83.8949966430664,-25.68400001525879z"></path></g></g><g filter="url(#__lottie_element_85)" transform="matrix(2.940000057220459,0,0,2.940000057220459,389.16998291015625,333.260009765625)" opacity="1" style="display: none;"><g opacity="1" transform="matrix(1,0,0,1,79.33499908447266,71.13200378417969)"><path fill="rgb(35,31,31)" fill-opacity="1" d="M0 0"></path></g><g opacity="1" transform="matrix(1,0,0,1,273.4599914550781,70.88999938964844)"><path fill="rgb(35,31,31)" fill-opacity="1" d=" M83.8949966430664,-25.68400001525879 C83.8949966430664,-25.68400001525879 86.61499786376953,-40.608001708984375 87.94599914550781,-46.68899917602539 C88.5989990234375,-49.67399978637695 87.02200317382812,-52.62699890136719 83.26000213623047,-53.540000915527344 C79.52300262451172,-54.44599914550781 70.93900299072266,-54.50600051879883 68.05799865722656,-54.18299865722656 C65.6510009765625,-53.91400146484375 63.3120002746582,-52.474998474121094 62.76900100708008,-49.979000091552734 C61.41299819946289,-43.7400016784668 60,-36.23500061035156 58.31800079345703,-26.618999481201172 C57.433998107910156,-22.16900062561035 55.73400115966797,-14.175999641418457 54.95100021362305,-8.725000381469727 C53.792999267578125,-3.259000062942505 51.57899856567383,11.413000106811523 50.60499954223633,20.518999099731445 C49.441001892089844,31.402999877929688 48.76100158691406,37.8650016784668 49.5260009765625,47.178001403808594 C51.731998443603516,64.04900360107422 60.69200134277344,72.81600189208984 74.86299896240234,70.71900177001953 C111.85600280761719,65.24600219726562 97.73999786376953,51.130001068115234 83.49099731445312,53.45800018310547 C78.09600067138672,54.34000015258789 73.5989990234375,50.207000732421875 73.5989990234375,40.71799850463867 C73.5989990234375,27.06399917602539 81.28299713134766,-9.847999572753906 81.28299713134766,-9.847999572753906 C82.26399993896484,-14.005999565124512 83.28399658203125,-19.788000106811523 83.8949966430664,-25.68400001525879z"></path></g></g><g filter="url(#__lottie_element_91)" transform="matrix(2.940000057220459,0,0,2.940000057220459,389.16998291015625,333.260009765625)" opacity="1" style="display: none;"><g opacity="1" transform="matrix(1,0,0,1,79.33499908447266,71.13200378417969)"><path fill="rgb(35,31,31)" fill-opacity="1" d="M0 0"></path></g><g opacity="1" transform="matrix(1,0,0,1,273.4599914550781,70.88999938964844)"><path fill="rgb(35,31,31)" fill-opacity="1" d=" M83.8949966430664,-25.68400001525879 C83.8949966430664,-25.68400001525879 86.61499786376953,-40.608001708984375 87.94599914550781,-46.68899917602539 C88.5989990234375,-49.67399978637695 87.02200317382812,-52.62699890136719 83.26000213623047,-53.540000915527344 C79.52300262451172,-54.44599914550781 70.93900299072266,-54.50600051879883 68.05799865722656,-54.18299865722656 C65.6510009765625,-53.91400146484375 63.3120002746582,-52.474998474121094 62.76900100708008,-49.979000091552734 C61.41299819946289,-43.7400016784668 60,-36.23500061035156 58.31800079345703,-26.618999481201172 C57.433998107910156,-22.16900062561035 55.73400115966797,-14.175999641418457 54.95100021362305,-8.725000381469727 C53.792999267578125,-3.259000062942505 51.57899856567383,11.413000106811523 50.60499954223633,20.518999099731445 C49.441001892089844,31.402999877929688 48.76100158691406,37.8650016784668 49.5260009765625,47.178001403808594 C51.731998443603516,64.04900360107422 73.5989990234375,50.207000732421875 73.5989990234375,40.71799850463867 C73.5989990234375,27.06399917602539 81.28299713134766,-9.847999572753906 81.28299713134766,-9.847999572753906 C82.26399993896484,-14.005999565124512 83.28399658203125,-19.788000106811523 83.8949966430664,-25.68400001525879z"></path></g></g><g filter="url(#__lottie_element_100)" transform="matrix(2.940000057220459,0,0,2.940000057220459,389.16998291015625,333.260009765625)" opacity="1" style="display: none;"><g opacity="1" transform="matrix(1,0,0,1,79.33499908447266,71.13200378417969)"><path fill="rgb(35,31,31)" fill-opacity="1" d="M0 0"></path></g><g opacity="1" transform="matrix(1,0,0,1,273.4599914550781,70.88999938964844)"><path fill="rgb(35,31,31)" fill-opacity="1" d=" M83.8949966430664,-25.68400001525879 C83.8949966430664,-25.68400001525879 86.61499786376953,-40.608001708984375 87.94599914550781,-46.68899917602539 C88.5989990234375,-49.67399978637695 87.02200317382812,-52.62699890136719 83.26000213623047,-53.540000915527344 C79.52300262451172,-54.44599914550781 70.93900299072266,-54.50600051879883 68.05799865722656,-54.18299865722656 C65.6510009765625,-53.91400146484375 63.3120002746582,-52.474998474121094 62.76900100708008,-49.979000091552734 C61.41299819946289,-43.7400016784668 60,-36.23500061035156 58.31800079345703,-26.618999481201172 C57.433998107910156,-22.16900062561035 55.73400115966797,-14.175999641418457 54.95100021362305,-8.725000381469727 C53.35300064086914,5.552000045776367 77.84300231933594,3.8519999980926514 81.28299713134766,-9.847999572753906 C82.9000015258789,-16.28700065612793 83.28399658203125,-19.788000106811523 83.8949966430664,-25.68400001525879z"></path></g></g></g><g clip-path="url(#__lottie_element_20)" transform="matrix(1,0,0,1,0,0)" opacity="1" style="display: block;"><g filter="url(#__lottie_element_43)" transform="matrix(2.940000057220459,0,0,2.940000057220459,389.16998291015625,333.260009765625)" opacity="1" style="display: block;"><g opacity="1" transform="matrix(1,0,0,1,79.33499908447266,71.13200378417969)"><path fill="rgb(35,31,31)" fill-opacity="1" d="M0 0"></path></g><g opacity="1" transform="matrix(1,0,0,1,273.4599914550781,70.88999938964844)"><path fill="rgb(35,31,31)" fill-opacity="1" d=" M54.95100021362305,-8.725000381469727 C53.792999267578125,-3.259000062942505 51.481998443603516,11.402999877929688 50.60499954223633,20.518999099731445 C44.965999603271484,39.47100067138672 33.25600051879883,53.45899963378906 23.173999786376953,53.45899963378906 C16.99799919128418,53.45899963378906 13.3149995803833,49.792999267578125 13.3149995803833,38.672000885009766 C13.3149995803833,23.2810001373291 16.85099983215332,3.815999984741211 22.006999969482422,-15.692999839782715 C25.461000442504883,-33.5629997253418 29.202999114990234,-51.08000183105469 30.065000534057617,-60.625 C30.363000869750977,-63.92900085449219 32.45500183105469,-68.50499725341797 28.479000091552734,-69.29499816894531 C21.305999755859375,-70.72000122070312 14.484999656677246,-70.45700073242188 9.706999778747559,-68.96800231933594 C5.439000129699707,-67.63899993896484 4.564000129699707,-63.14799880981445 4.051000118255615,-60.75400161743164 C1.5859999656677246,-49.24599838256836 -2.4519999027252197,-28.85099983215332 -5.2779998779296875,-10.970999717712402 C-6.171000003814697,-4.822000026702881 -7.702000141143799,2.6610000133514404 -8.987000465393066,10.013999938964844 C-8.987000465393066,10.013999938964844 -13.029000282287598,30.43000030517578 -13.029000282287598,42.41600036621094 C-13.029000282287598,60.59000015258789 -5.230999946594238,70.71900177001953 13.088000297546387,70.71900177001953 C28.158000946044922,70.71900177001953 41.308998107910156,60.090999603271484 49.5260009765625,47.178001403808594 C57.263999938964844,34.29399871826172 69.03800201416016,-9.168000221252441 69.03800201416016,-9.168000221252441 C75.79900360107422,-9.411999702453613 48.70600128173828,-8.425000190734863 54.95100021362305,-8.725000381469727z"></path></g></g><g filter="url(#__lottie_element_103)" transform="matrix(2.940000057220459,0,0,2.940000057220459,389.16998291015625,333.260009765625)" opacity="1" style="display: none;"><g opacity="1" transform="matrix(1,0,0,1,79.33499908447266,71.13200378417969)"><path fill="rgb(35,31,31)" fill-opacity="1" d="M0 0"></path></g><g opacity="1" transform="matrix(1,0,0,1,273.4599914550781,70.88999938964844)"><path fill="rgb(35,31,31)" fill-opacity="1" d=" M52.53900146484375,5.413000106811523 C51.75600051879883,10.64900016784668 51.02000045776367,16.204999923706055 50.60499954223633,20.518999099731445 C44.965999603271484,39.47100067138672 33.25600051879883,53.45899963378906 23.173999786376953,53.45899963378906 C16.99799919128418,53.45899963378906 13.3149995803833,49.792999267578125 13.3149995803833,38.672000885009766 C13.3149995803833,23.2810001373291 16.85099983215332,3.815999984741211 22.006999969482422,-15.692999839782715 C25.461000442504883,-33.5629997253418 29.202999114990234,-51.08000183105469 30.065000534057617,-60.625 C30.363000869750977,-63.92900085449219 32.45500183105469,-68.50499725341797 28.479000091552734,-69.29499816894531 C21.305999755859375,-70.72000122070312 14.484999656677246,-70.45700073242188 9.706999778747559,-68.96800231933594 C5.439000129699707,-67.63899993896484 4.564000129699707,-63.14799880981445 4.051000118255615,-60.75400161743164 C1.5859999656677246,-49.24599838256836 -2.4519999027252197,-28.85099983215332 -5.2779998779296875,-10.970999717712402 C-6.171000003814697,-4.822000026702881 -7.702000141143799,2.6610000133514404 -8.987000465393066,10.013999938964844 C-8.987000465393066,10.013999938964844 -13.029000282287598,30.43000030517578 -13.029000282287598,42.41600036621094 C-13.029000282287598,60.59000015258789 -5.230999946594238,70.71900177001953 13.088000297546387,70.71900177001953 C28.158000946044922,70.71900177001953 41.308998107910156,60.090999603271484 49.5260009765625,47.178001403808594 C53.972999572753906,39.77399826049805 59.75299835205078,22.270999908447266 63.8650016784668,8.722000122070312 C66.90799713134766,-1.305999994277954 53.4109992980957,-0.41499999165534973 52.53900146484375,5.413000106811523z"></path></g></g><g filter="url(#__lottie_element_115)" transform="matrix(2.940000057220459,0,0,2.940000057220459,389.16998291015625,333.260009765625)" opacity="1" style="display: none;"><g opacity="1" transform="matrix(1,0,0,1,79.33499908447266,71.13200378417969)"><path fill="rgb(35,31,31)" fill-opacity="1" d="M0 0"></path></g><g opacity="1" transform="matrix(1,0,0,1,273.4599914550781,70.88999938964844)"><path fill="rgb(35,31,31)" fill-opacity="1" d=" M40.9109992980957,41.02799987792969 C35.45899963378906,48.722999572753906 29.040000915527344,53.45899963378906 23.173999786376953,53.45899963378906 C16.99799919128418,53.45899963378906 13.3149995803833,49.792999267578125 13.3149995803833,38.672000885009766 C13.3149995803833,23.2810001373291 16.85099983215332,3.815999984741211 22.006999969482422,-15.692999839782715 C25.461000442504883,-33.5629997253418 29.202999114990234,-51.08000183105469 30.065000534057617,-60.625 C30.363000869750977,-63.92900085449219 32.45500183105469,-68.50499725341797 28.479000091552734,-69.29499816894531 C21.305999755859375,-70.72000122070312 14.484999656677246,-70.45700073242188 9.706999778747559,-68.96800231933594 C5.439000129699707,-67.63899993896484 4.564000129699707,-63.14799880981445 4.051000118255615,-60.75400161743164 C1.5859999656677246,-49.24599838256836 -2.4519999027252197,-28.85099983215332 -5.2779998779296875,-10.970999717712402 C-6.171000003814697,-4.822000026702881 -7.702000141143799,2.6610000133514404 -8.987000465393066,10.013999938964844 C-8.987000465393066,10.013999938964844 -13.029000282287598,30.43000030517578 -13.029000282287598,42.41600036621094 C-13.029000282287598,60.59000015258789 -5.230999946594238,70.71900177001953 13.088000297546387,70.71900177001953 C28.158000946044922,70.71900177001953 41.308998107910156,60.090999603271484 49.5260009765625,47.178001403808594 C53.972999572753906,39.77399826049805 44.82899856567383,35.499000549316406 40.9109992980957,41.02799987792969z"></path></g></g><g filter="url(#__lottie_element_124)" transform="matrix(2.940000057220459,0,0,2.940000057220459,389.16998291015625,333.260009765625)" opacity="1" style="display: none;"><g opacity="1" transform="matrix(1,0,0,1,79.33499908447266,71.13200378417969)"><path fill="rgb(35,31,31)" fill-opacity="1" d="M0 0"></path></g><g opacity="1" transform="matrix(1,0,0,1,273.4599914550781,70.88999938964844)"><path fill="rgb(35,31,31)" fill-opacity="1" d=" M13.3149995803833,38.672000885009766 C13.3149995803833,23.2810001373291 16.85099983215332,3.815999984741211 22.006999969482422,-15.692999839782715 C25.461000442504883,-33.5629997253418 29.202999114990234,-51.08000183105469 30.065000534057617,-60.625 C30.363000869750977,-63.92900085449219 32.45500183105469,-68.50499725341797 28.479000091552734,-69.29499816894531 C21.305999755859375,-70.72000122070312 14.484999656677246,-70.45700073242188 9.706999778747559,-68.96800231933594 C5.439000129699707,-67.63899993896484 4.564000129699707,-63.14799880981445 4.051000118255615,-60.75400161743164 C1.5859999656677246,-49.24599838256836 -2.4519999027252197,-28.85099983215332 -5.2779998779296875,-10.970999717712402 C-6.171000003814697,-4.822000026702881 -7.702000141143799,2.6610000133514404 -8.987000465393066,10.013999938964844 C-8.987000465393066,10.013999938964844 -13.029000282287598,30.43000030517578 -13.029000282287598,42.41600036621094 C-13.029000282287598,60.59000015258789 13.3149995803833,49.792999267578125 13.3149995803833,38.672000885009766z"></path></g></g><g filter="url(#__lottie_element_136)" transform="matrix(2.940000057220459,0,0,2.940000057220459,389.16998291015625,333.260009765625)" opacity="1" style="display: none;"><g opacity="1" transform="matrix(1,0,0,1,79.33499908447266,71.13200378417969)"><path fill="rgb(35,31,31)" fill-opacity="1" d="M0 0"></path></g><g opacity="1" transform="matrix(1,0,0,1,273.4599914550781,70.88999938964844)"><path fill="rgb(35,31,31)" fill-opacity="1" d=" M22.006999969482422,-15.692999839782715 C25.461000442504883,-33.5629997253418 29.202999114990234,-51.08000183105469 30.065000534057617,-60.625 C30.363000869750977,-63.92900085449219 32.45500183105469,-68.50499725341797 28.479000091552734,-69.29499816894531 C21.305999755859375,-70.72000122070312 14.484999656677246,-70.45700073242188 9.706999778747559,-68.96800231933594 C5.439000129699707,-67.63899993896484 4.564000129699707,-63.14799880981445 4.051000118255615,-60.75400161743164 C1.5859999656677246,-49.24599838256836 -2.4519999027252197,-28.85099983215332 -5.2779998779296875,-10.970999717712402 C-6.171000003814697,-4.822000026702881 16.85099983215332,3.815999984741211 22.006999969482422,-15.692999839782715z"></path></g></g><g filter="url(#__lottie_element_142)" transform="matrix(2.940000057220459,0,0,2.940000057220459,389.16998291015625,333.260009765625)" opacity="1" style="display: none;"><g opacity="1" transform="matrix(1,0,0,1,79.33499908447266,71.13200378417969)"><path fill="rgb(35,31,31)" fill-opacity="1" d="M0 0"></path></g><g opacity="1" transform="matrix(1,0,0,1,273.4599914550781,70.88999938964844)"><path fill="rgb(35,31,31)" fill-opacity="1" d=" M30.065000534057617,-60.625 C30.363000869750977,-63.92900085449219 32.45500183105469,-68.50499725341797 28.479000091552734,-69.29499816894531 C21.305999755859375,-70.72000122070312 14.484999656677246,-70.45700073242188 9.706999778747559,-68.96800231933594 C5.439000129699707,-67.63899993896484 4.564000129699707,-63.14799880981445 4.051000118255615,-60.75400161743164 C1.5859999656677246,-49.24599838256836 29.202999114990234,-51.08000183105469 30.065000534057617,-60.625z"></path></g></g><g filter="url(#__lottie_element_46)" transform="matrix(2.940000057220459,0,0,2.940000057220459,389.16998291015625,333.260009765625)" opacity="1" style="display: block;"><g opacity="1" transform="matrix(1,0,0,1,79.33499908447266,71.13200378417969)"><path fill="rgb(35,31,31)" fill-opacity="1" d="M0 0"></path></g><g opacity="1" transform="matrix(1,0,0,1,273.4599914550781,70.88999938964844)"><path fill="rgb(35,31,31)" fill-opacity="1" d=" M72.53600311279297,-25.760000228881836 C72.53600311279297,-25.760000228881836 73.17900085449219,-40.61000061035156 74.51000213623047,-46.691001892089844 C75.16300201416016,-49.67599868774414 70.93900299072266,-54.50600051879883 68.05799865722656,-54.18299865722656 C65.6510009765625,-53.91400146484375 63.3120002746582,-52.474998474121094 62.76900100708008,-49.979000091552734 C61.41299819946289,-43.7400016784668 58.31800079345703,-26.618999481201172 58.31800079345703,-26.618999481201172 C58.31800079345703,-26.618999481201172 54.95100021362305,-8.725000381469727 54.95100021362305,-8.725000381469727 C54.95100021362305,-8.725000381469727 51.481998443603516,11.402999877929688 50.60499954223633,20.518999099731445 C44.965999603271484,39.47100067138672 33.25600051879883,53.45899963378906 23.173999786376953,53.45899963378906 C16.99799919128418,53.45899963378906 13.3149995803833,49.792999267578125 13.3149995803833,38.672000885009766 C13.3149995803833,23.2810001373291 -13.029000282287598,30.43000030517578 -13.029000282287598,42.41600036621094 C-13.029000282287598,60.59000015258789 -5.230999946594238,70.71900177001953 13.088000297546387,70.71900177001953 C28.158000946044922,70.71900177001953 41.308998107910156,60.090999603271484 49.5260009765625,47.178001403808594 C62.1510009765625,23.507999420166016 69.33799743652344,-7.85699987411499 69.33799743652344,-7.85699987411499 C69.33799743652344,-7.85699987411499 72.53600311279297,-25.760000228881836 72.53600311279297,-25.760000228881836z"></path></g></g><g filter="url(#__lottie_element_118)" transform="matrix(2.940000057220459,0,0,2.940000057220459,389.16998291015625,333.260009765625)" opacity="1" style="display: none;"><g opacity="1" transform="matrix(1,0,0,1,79.33499908447266,71.13200378417969)"><path fill="rgb(35,31,31)" fill-opacity="1" d="M0 0"></path></g><g opacity="1" transform="matrix(1,0,0,1,273.4599914550781,70.88999938964844)"><path fill="rgb(35,31,31)" fill-opacity="1" d=" M72.53600311279297,-25.760000228881836 C73.76000213623047,-34.92399978637695 60.051998138427734,-36.34199905395508 58.31800079345703,-26.618999481201172 C56.58399963378906,-16.895999908447266 54.95100021362305,-8.725000381469727 54.95100021362305,-8.725000381469727 C54.95100021362305,-8.725000381469727 51.481998443603516,11.402999877929688 50.60499954223633,20.518999099731445 C44.965999603271484,39.47100067138672 33.25600051879883,53.45899963378906 23.173999786376953,53.45899963378906 C16.99799919128418,53.45899963378906 13.3149995803833,49.792999267578125 13.3149995803833,38.672000885009766 C13.3149995803833,23.2810001373291 -13.029000282287598,30.43000030517578 -13.029000282287598,42.41600036621094 C-13.029000282287598,60.59000015258789 -5.230999946594238,70.71900177001953 13.088000297546387,70.71900177001953 C28.158000946044922,70.71900177001953 41.308998107910156,60.090999603271484 49.5260009765625,47.178001403808594 C62.1510009765625,23.507999420166016 69.33799743652344,-7.85699987411499 69.33799743652344,-7.85699987411499 C69.33799743652344,-7.85699987411499 71.31199645996094,-16.59600067138672 72.53600311279297,-25.760000228881836z"></path></g></g><g filter="url(#__lottie_element_127)" transform="matrix(2.940000057220459,0,0,2.940000057220459,389.16998291015625,333.260009765625)" opacity="1" style="display: none;"><g opacity="1" transform="matrix(1,0,0,1,79.33499908447266,71.13200378417969)"><path fill="rgb(35,31,31)" fill-opacity="1" d="M0 0"></path></g><g opacity="1" transform="matrix(1,0,0,1,273.4599914550781,70.88999938964844)"><path fill="rgb(35,31,31)" fill-opacity="1" d=" M50.60499954223633,20.518999099731445 C44.965999603271484,39.47100067138672 33.25600051879883,53.45899963378906 23.173999786376953,53.45899963378906 C16.99799919128418,53.45899963378906 13.3149995803833,49.792999267578125 13.3149995803833,38.672000885009766 C13.3149995803833,23.2810001373291 -13.029000282287598,30.43000030517578 -13.029000282287598,42.41600036621094 C-13.029000282287598,60.59000015258789 -5.230999946594238,70.71900177001953 13.088000297546387,70.71900177001953 C28.158000946044922,70.71900177001953 41.308998107910156,60.090999603271484 49.5260009765625,47.178001403808594 C62.1510009765625,23.507999420166016 51.481998443603516,11.402999877929688 50.60499954223633,20.518999099731445z"></path></g></g></g><g clip-path="url(#__lottie_element_24)" transform="matrix(1,0,0,1,0,0)" opacity="1" style="display: block;"><g mask="url(#__lottie_element_25)"><g filter="url(#__lottie_element_49)" transform="matrix(2.940000057220459,0,0,2.940000057220459,389.16998291015625,333.260009765625)" opacity="1" style="display: block;"><g opacity="1" transform="matrix(1,0,0,1,79.33499908447266,71.13200378417969)"><path fill="rgb(35,31,31)" fill-opacity="1" d="M0 0"></path></g><g opacity="1" transform="matrix(1,0,0,1,273.4599914550781,70.88999938964844)"><path fill="rgb(35,31,31)" fill-opacity="1" d=" M13.843999862670898,-22.496000289916992 C21.118999481201172,-39.99700164794922 14.484999656677246,-70.45700073242188 9.706999778747559,-68.96800231933594 C5.439000129699707,-67.63899993896484 8.815999984741211,-38.99800109863281 8.303000450134277,-36.604000091552734 C5.8379998207092285,-25.09600067138672 4.203000068664551,-24.209999084472656 -5.2779998779296875,-10.970999717712402 C-11.557999610900879,-3.369999885559082 -18.768999099731445,1.9700000286102295 -26.573999404907227,3.2860000133514404 C-48.518001556396484,5.552000045776367 -51.749000549316406,-4.48199987411499 -43.5369987487793,-18.660999298095703 C-30.735000610351562,-40.763999938964844 -47.68199920654297,-33.05699920654297 -56.02899932861328,-18.575000762939453 C-58.57400131225586,-14.159000396728516 -59.2400016784668,-9.059000015258789 -59.38800048828125,-4.051000118255615 C-59.573001861572266,2.2100000381469727 -58.551998138427734,10.144000053405762 -50.375999450683594,16 C-41.51499938964844,22.347000122070312 -34.41600036621094,21.090999603271484 -27.739999771118164,19.790000915527344 C-20.57699966430664,18.339000701904297 -14.354000091552734,14.845999717712402 -8.987000465393066,10.013999938964844 C-8.987000465393066,10.013999938964844 8.687999725341797,-2.986999988555908 13.843999862670898,-22.496000289916992z"></path></g></g><g filter="url(#__lottie_element_94)" transform="matrix(2.940000057220459,0,0,2.940000057220459,389.16998291015625,333.260009765625)" opacity="1" style="display: none;"><g opacity="1" transform="matrix(1,0,0,1,79.33499908447266,71.13200378417969)"><path fill="rgb(35,31,31)" fill-opacity="1" d="M0 0"></path></g><g opacity="1" transform="matrix(1,0,0,1,273.4599914550781,70.88999938964844)"><path fill="rgb(35,31,31)" fill-opacity="1" d=" M-26.573999404907227,3.2860000133514404 C-48.518001556396484,5.552000045776367 -51.749000549316406,-4.48199987411499 -43.5369987487793,-18.660999298095703 C-26.83099937438965,-47.50400161743164 -57.56399917602539,-25.545000076293945 -58.196998596191406,-4.111000061035156 C-58.38199996948242,2.1500000953674316 -58.551998138427734,10.144000053405762 -50.375999450683594,16 C-41.51499938964844,22.347000122070312 -34.41600036621094,21.090999603271484 -27.739999771118164,19.790000915527344 C-20.57699966430664,18.339000701904297 -18.768999099731445,1.9700000286102295 -26.573999404907227,3.2860000133514404z"></path></g></g><g filter="url(#__lottie_element_106)" transform="matrix(2.940000057220459,0,0,2.940000057220459,389.16998291015625,333.260009765625)" opacity="1" style="display: none;"><g opacity="1" transform="matrix(1,0,0,1,79.33499908447266,71.13200378417969)"><path fill="rgb(35,31,31)" fill-opacity="1" d="M0 0"></path></g><g opacity="1" transform="matrix(1,0,0,1,273.4599914550781,70.88999938964844)"><path fill="rgb(35,31,31)" fill-opacity="1" d=" M-43.5369987487793,-18.660999298095703 C-26.83099937438965,-47.50400161743164 -57.56399917602539,-25.545000076293945 -58.196998596191406,-4.111000061035156 C-58.38199996948242,2.1500000953674316 -58.551998138427734,10.144000053405762 -50.375999450683594,16 C-41.51499938964844,22.347000122070312 -51.749000549316406,-4.48199987411499 -43.5369987487793,-18.660999298095703z"></path></g></g><g filter="url(#__lottie_element_52)" transform="matrix(2.940000057220459,0,0,2.940000057220459,389.16998291015625,333.260009765625)" opacity="1" style="display: block;"><g opacity="1" transform="matrix(1,0,0,1,79.33499908447266,71.13200378417969)"><path fill="rgb(35,31,31)" fill-opacity="1" d="M0 0"></path></g><g opacity="1" transform="matrix(1,0,0,1,273.4599914550781,70.88999938964844)"><path fill="rgb(35,31,31)" fill-opacity="1" d=" M22.006999969482422,-15.692999839782715 C29.281999588012695,-33.194000244140625 33.465999603271484,-52.654998779296875 33.465999603271484,-61.47600173950195 C33.465999603271484,-64.79299926757812 32.45500183105469,-68.50499725341797 28.479000091552734,-69.29499816894531 C21.305999755859375,-70.72000122070312 14.484999656677246,-70.45700073242188 9.706999778747559,-68.96800231933594 C5.439000129699707,-67.63899993896484 10.687000274658203,-60.25699996948242 10.173999786376953,-57.862998962402344 C7.709000110626221,-46.35499954223633 16.85099983215332,3.815999984741211 22.006999969482422,-15.692999839782715z"></path></g></g></g></g><g clip-path="url(#__lottie_element_28)" transform="matrix(1,0,0,1,0,0)" opacity="1" style="display: block;"><g transform="matrix(1,0,0,1,0,0)" opacity="1" style="display: none;"><g opacity="1" transform="matrix(1,0,0,1,1191.8330078125,543.0040283203125)"><path fill="rgb(255,255,255)" fill-opacity="1" d=" M-227.12425231933594,-39.095664978027344 C-223.1061553955078,-39.095664978027344 -219.341796875,-37.94552993774414 -216.1082763671875,-35.93904495239258 C-212.87477111816406,-33.932559967041016 -210.1722412109375,-31.069894790649414 -208.2781524658203,-27.644664764404297 C-206.38404846191406,-24.219436645507812 -205.2982177734375,-20.231645584106445 -205.2982177734375,-15.975410461425781 C-205.2982177734375,-9.59130859375 -207.74114990234375,-3.8114538192749023 -211.69122314453125,0.37275078892707825 C-215.64129638671875,4.556955337524414 -221.09751892089844,7.144843101501465 -227.12425231933594,7.144843101501465 C-233.15098571777344,7.144843101501465 -238.60720825195312,4.556955337524414 -242.55728149414062,0.37275078892707825 C-246.50735473632812,-3.8114538192749023 -248.95028686523438,-9.59130859375 -248.95028686523438,-15.975410461425781 C-248.95028686523438,-22.3603458404541 -246.50735473632812,-28.139368057250977 -242.55728149414062,-32.323570251464844 C-238.60720825195312,-36.50777816772461 -233.15098571777344,-39.095664978027344 -227.12425231933594,-39.095664978027344z M966.0889892578125,-28.85099983215332 C967.6859741210938,-31.31399917602539 971.0609741210938,-31.548999786376953 974.5999755859375,-30.895000457763672 C978.1389770507812,-30.240999221801758 981.843017578125,-28.69700050354004 984.0999755859375,-27.600000381469727 C987.8779907226562,-25.76300048828125 989.1669921875,-22.280000686645508 989.1539916992188,-15.847999572753906 C987.3590087890625,8.050999641418457 959.9539794921875,-20.5 966.0889892578125,-28.85099983215332z"></path></g></g><g filter="url(#__lottie_element_130)" transform="matrix(1,0,0,1,768.47998046875,519.1699829101562)" opacity="1" style="display: none;"><g opacity="1" transform="matrix(1,0,0,1,79.33499908447266,71.13200378417969)"><path fill="rgb(35,31,31)" fill-opacity="1" d="M0 0"></path></g><g opacity="1" transform="matrix(1,0,0,1,273.4599914550781,70.88999938964844)"><path fill="rgb(35,31,31)" fill-opacity="1" d=" M-32.57400131225586,10.28600025177002 C-33.7869987487793,-13.392000198364258 -47.56399917602539,-23.565000534057617 -66.54399871826172,-23.565000534057617 C-99.8759994506836,-23.565000534057617 -121.12100219726562,6.130000114440918 -121.12100219726562,39.459999084472656 C-121.12100219726562,66.45999908447266 -106.38899993896484,77.71900177001953 -84.94599914550781,77.71900177001953 C-59.624000549316406,77.71900177001953 -40.779998779296875,59.74700164794922 -33.7400016784668,26.790000915527344 C-32.749000549316406,20.969999313354492 -32.57899856567383,16.804000854492188 -32.57400131225586,10.28600025177002z"></path></g></g><g filter="url(#__lottie_element_109)" transform="matrix(2.1742331981658936,0,0,2.1742331981658936,538.8939208984375,406.64324951171875)" opacity="1" style="display: none;"><g opacity="1" transform="matrix(1,0,0,1,79.33499908447266,71.13200378417969)"><path fill="rgb(35,31,31)" fill-opacity="1" d="M0 0"></path></g><g opacity="1" transform="matrix(1,0,0,1,273.4599914550781,70.88999938964844)"><path fill="rgb(35,31,31)" fill-opacity="1" d=" M-67.49046325683594,15.280707359313965 C-70.61219024658203,15.280707359313965 -72.70183563232422,13.704479217529297 -72.70183563232422,10.57605266571045 C-72.70183563232422,4.575077056884766 -69.05592346191406,-1.881309986114502 -62.507537841796875,-1.881309986114502 C-61.77021789550781,-1.881309986114502 -61.116493225097656,-1.823844075202942 -60.53825759887695,-1.6891076564788818 C-58.47615432739258,-1.268133521080017 -57.09121322631836,2.9111168384552 -57.763282775878906,5.614398956298828 C-59.18289566040039,10.884146690368652 -63.16126251220703,15.280707359313965 -67.49046325683594,15.280707359313965z M-28.942350387573242,6.049076080322266 C-30.155351638793945,-17.628923416137695 -43.932350158691406,-27.801923751831055 -62.912349700927734,-27.801923751831055 C-96.24435424804688,-27.801923751831055 -117.48934936523438,1.8930760622024536 -117.48934936523438,35.22307586669922 C-117.48934936523438,62.22307586669922 -102.7573471069336,73.4820785522461 -81.3143539428711,73.4820785522461 C-55.99235153198242,73.4820785522461 -37.14834976196289,55.510074615478516 -30.10835075378418,22.553075790405273 C-29.117351531982422,16.733076095581055 -28.947351455688477,12.567075729370117 -28.942350387573242,6.049076080322266z"></path></g></g><g filter="url(#__lottie_element_55)" transform="matrix(2.940000057220459,0,0,2.940000057220459,389.16998291015625,333.260009765625)" opacity="1" style="display: block;"><g opacity="1" transform="matrix(1,0,0,1,79.33499908447266,71.13200378417969)"><path fill="rgb(35,31,31)" fill-opacity="1" d="M0 0"></path></g><g opacity="1" transform="matrix(1,0,0,1,273.4599914550781,70.88999938964844)"><path fill="rgb(35,31,31)" fill-opacity="1" d=" M-75.15799713134766,56.04199981689453 C-82.8239974975586,56.04199981689453 -87.95500183105469,49.435001373291016 -87.95500183105469,36.321998596191406 C-87.95500183105469,11.166000366210938 -79.00299835205078,-15.89799976348877 -62.922000885009766,-15.89799976348877 C-61.112998962402344,-15.89799976348877 -59.50699996948242,-15.656000137329102 -58.0880012512207,-15.092000007629395 C-53.025001525878906,-13.326000213623047 -49.624000549316406,4.191999912261963 -51.27399826049805,15.522000312805176 C-54.7599983215332,37.61000061035156 -64.52799987792969,56.04199981689453 -75.15799713134766,56.04199981689453z M-26.573999404907227,3.2860000133514404 C-27.78700065612793,-20.392000198364258 -41.56399917602539,-30.565000534057617 -60.54399871826172,-30.565000534057617 C-93.8759994506836,-30.565000534057617 -115.12100219726562,-0.8700000047683716 -115.12100219726562,32.459999084472656 C-115.12100219726562,59.459999084472656 -100.38899993896484,70.71900177001953 -78.94599914550781,70.71900177001953 C-53.624000549316406,70.71900177001953 -34.779998779296875,52.74700164794922 -27.739999771118164,19.790000915527344 C-26.749000549316406,13.970000267028809 -26.57900047302246,9.803999900817871 -26.573999404907227,3.2860000133514404z"></path></g></g></g><g clip-path="url(#__lottie_element_32)" transform="matrix(1,0,0,1,0,0)" opacity="1" style="display: block;"><g filter="url(#__lottie_element_58)" transform="matrix(2.940000057220459,0,0,2.940000057220459,389.16998291015625,333.260009765625)" opacity="1" style="display: block;"><g opacity="1" transform="matrix(1,0,0,1,79.33499908447266,71.13200378417969)"><path fill="rgb(35,31,31)" fill-opacity="1" d=" M66.65399932861328,-70.47699737548828 C62.22200012207031,-70.47699737548828 58.29100036621094,-70.25599670410156 56.347999572753906,-70.05500030517578 C52.47100067138672,-69.65399932861328 51.15800094604492,-65.97100067138672 51.439998626708984,-62.34600067138672 C55.520999908447266,-9.859000205993652 43.96799850463867,51.222999572753906 30.81800079345703,51.222999572753906 C21.027000427246094,51.222999572753906 18.299999237060547,22.673999786376953 18.299999237060547,-2.7209999561309814 C18.299999237060547,-17.729999542236328 19.156999588012695,-32.185001373291016 19.516000747680664,-44.959999084472656 C19.648000717163086,-49.69900131225586 17.926000595092773,-50.590999603271484 14.501999855041504,-51.00699996948242 C9.312999725341797,-51.637001037597656 5.5980000495910645,-51.63199996948242 0.44600000977516174,-50.49100112915039 C-3.490000009536743,-49.61899948120117 -4.415999889373779,-46.388999938964844 -8.555000305175781,-36.54800033569336 C-29.173999786376953,12.47599983215332 -49.064998626708984,51.85200119018555 -49.064998626708984,51.85200119018555 C-54.32400131225586,12.383000373840332 -47.57500076293945,-25.900999069213867 -41.82500076293945,-53.845001220703125 C-41.03099822998047,-57.69300079345703 -42.86600112915039,-59.965999603271484 -46.027000427246094,-59.9109992980957 C-51.97999954223633,-59.80699920654297 -61.119998931884766,-59.61600112915039 -65.24400329589844,-56.91600036621094 C-69.11100006103516,-54.3849983215332 -70.5459976196289,-51.68299865722656 -71.66200256347656,-46.09000015258789 C-78.04499816894531,-14.088000297546387 -82.1989974975586,26.055999755859375 -75.77799987792969,57.097999572753906 C-74.38999938964844,63.80699920654297 -72.83200073242188,65.39199829101562 -69.9990005493164,67.14700317382812 C-67.16600036621094,68.90299987792969 -55.00400161743164,70.47699737548828 -50.28799819946289,70.47699737548828 C-44.93299865722656,70.47699737548828 -40.02899932861328,69.03500366210938 -35.95000076293945,62.04199981689453 C-27.31399917602539,47.236000061035156 -20.39699935913086,32.448001861572266 -7.328999996185303,3.9649999141693115 C-5.982999801635742,41.07699966430664 -0.7459999918937683,70.20800018310547 25.329999923706055,70.20800018310547 C59.89099884033203,70.20800018310547 82.1989974975586,-16.139999389648438 82.1989974975586,-57.6879997253418 C82.1989974975586,-68.67900085449219 76.75,-70.47699737548828 66.65399932861328,-70.47699737548828z"></path></g></g><g filter="url(#__lottie_element_61)" transform="matrix(2.940000057220459,0,0,2.940000057220459,389.16998291015625,333.260009765625)" opacity="1" style="display: none;"><g opacity="1" transform="matrix(1,0,0,1,79.33499908447266,71.13200378417969)"><path fill="rgb(35,31,31)" fill-opacity="1" d=" M66.65399932861328,-70.47699737548828 C62.22200012207031,-70.47699737548828 58.29100036621094,-70.25599670410156 56.347999572753906,-70.05500030517578 C52.47100067138672,-69.65399932861328 51.15800094604492,-65.97100067138672 51.439998626708984,-62.34600067138672 C55.520999908447266,-9.859000205993652 43.96799850463867,51.222999572753906 30.81800079345703,51.222999572753906 C21.027000427246094,51.222999572753906 18.299999237060547,22.673999786376953 18.299999237060547,-2.7209999561309814 C18.299999237060547,-17.729999542236328 19.156999588012695,-32.185001373291016 19.516000747680664,-44.959999084472656 C19.648000717163086,-49.69900131225586 17.926000595092773,-50.590999603271484 14.501999855041504,-51.00699996948242 C9.312999725341797,-51.637001037597656 5.5980000495910645,-51.63199996948242 0.44600000977516174,-50.49100112915039 C-3.490000009536743,-49.61899948120117 -4.415999889373779,-46.388999938964844 -8.555000305175781,-36.54800033569336 C-29.173999786376953,12.47599983215332 -49.064998626708984,51.85200119018555 -49.064998626708984,51.85200119018555 C-53.82400131225586,16.13599967956543 -48.75,-18.608999252319336 -43.48099899291992,-45.60100173950195 C-42.926998138427734,-48.4370002746582 -72.58999633789062,-44.18000030517578 -74.21900177001953,-32.0369987487793 C-78.14700317382812,-2.759000062942505 -81.28900146484375,30.457000732421875 -75.77799987792969,57.097999572753906 C-74.38999938964844,63.80699920654297 -72.83200073242188,65.39199829101562 -69.9990005493164,67.14700317382812 C-67.16600036621094,68.90299987792969 -55.00400161743164,70.47699737548828 -50.28799819946289,70.47699737548828 C-44.93299865722656,70.47699737548828 -40.02899932861328,69.03500366210938 -35.95000076293945,62.04199981689453 C-27.31399917602539,47.236000061035156 -20.39699935913086,32.448001861572266 -7.328999996185303,3.9649999141693115 C-5.982999801635742,41.07699966430664 -0.7459999918937683,70.20800018310547 25.329999923706055,70.20800018310547 C59.89099884033203,70.20800018310547 82.1989974975586,-16.139999389648438 82.1989974975586,-57.6879997253418 C82.1989974975586,-68.67900085449219 76.75,-70.47699737548828 66.65399932861328,-70.47699737548828z"></path></g></g><g filter="url(#__lottie_element_64)" transform="matrix(2.940000057220459,0,0,2.940000057220459,389.16998291015625,333.260009765625)" opacity="1" style="display: none;"><g opacity="1" transform="matrix(1,0,0,1,79.33499908447266,71.13200378417969)"><path fill="rgb(35,31,31)" fill-opacity="1" d=" M66.65399932861328,-70.47699737548828 C62.22200012207031,-70.47699737548828 58.29100036621094,-70.25599670410156 56.347999572753906,-70.05500030517578 C52.47100067138672,-69.65399932861328 51.15800094604492,-65.97100067138672 51.439998626708984,-62.34600067138672 C55.520999908447266,-9.859000205993652 43.96799850463867,51.222999572753906 30.81800079345703,51.222999572753906 C21.027000427246094,51.222999572753906 18.299999237060547,22.673999786376953 18.299999237060547,-2.7209999561309814 C18.299999237060547,-17.729999542236328 19.156999588012695,-32.185001373291016 19.516000747680664,-44.959999084472656 C19.648000717163086,-49.69900131225586 17.926000595092773,-50.590999603271484 14.501999855041504,-51.00699996948242 C9.312999725341797,-51.637001037597656 5.5980000495910645,-51.63199996948242 0.44600000977516174,-50.49100112915039 C-3.490000009536743,-49.61899948120117 -4.415999889373779,-46.388999938964844 -8.555000305175781,-36.54800033569336 C-29.173999786376953,12.47599983215332 -49.064998626708984,51.85200119018555 -49.064998626708984,51.85200119018555 C-52.58700180053711,25.416000366210938 -50.722999572753906,-0.48899999260902405 -47.37900161743164,-23.111000061035156 C-46.20500183105469,-31.052000045776367 -75.82099914550781,-18.84000015258789 -77.25499725341797,-5.736000061035156 C-77.87000274658203,-0.11299999803304672 -79.68499755859375,38.209999084472656 -75.77799987792969,57.097999572753906 C-74.38999938964844,63.80699920654297 -72.83200073242188,65.39199829101562 -69.9990005493164,67.14700317382812 C-67.16600036621094,68.90299987792969 -55.00400161743164,70.47699737548828 -50.28799819946289,70.47699737548828 C-44.93299865722656,70.47699737548828 -40.02899932861328,69.03500366210938 -35.95000076293945,62.04199981689453 C-27.31399917602539,47.236000061035156 -20.39699935913086,32.448001861572266 -7.328999996185303,3.9649999141693115 C-5.982999801635742,41.07699966430664 -0.7459999918937683,70.20800018310547 25.329999923706055,70.20800018310547 C59.89099884033203,70.20800018310547 82.1989974975586,-16.139999389648438 82.1989974975586,-57.6879997253418 C82.1989974975586,-68.67900085449219 76.75,-70.47699737548828 66.65399932861328,-70.47699737548828z"></path></g></g><g filter="url(#__lottie_element_67)" transform="matrix(2.940000057220459,0,0,2.940000057220459,389.16998291015625,333.260009765625)" opacity="1" style="display: none;"><g opacity="1" transform="matrix(1,0,0,1,79.33499908447266,71.13200378417969)"><path fill="rgb(35,31,31)" fill-opacity="1" d=" M66.65399932861328,-70.47699737548828 C62.22200012207031,-70.47699737548828 58.29100036621094,-70.25599670410156 56.347999572753906,-70.05500030517578 C52.47100067138672,-69.65399932861328 51.15800094604492,-65.97100067138672 51.439998626708984,-62.34600067138672 C55.520999908447266,-9.859000205993652 43.96799850463867,51.222999572753906 30.81800079345703,51.222999572753906 C21.027000427246094,51.222999572753906 18.299999237060547,22.673999786376953 18.299999237060547,-2.7209999561309814 C18.299999237060547,-17.729999542236328 19.156999588012695,-32.185001373291016 19.516000747680664,-44.959999084472656 C19.648000717163086,-49.69900131225586 17.926000595092773,-50.590999603271484 14.501999855041504,-51.00699996948242 C9.312999725341797,-51.637001037597656 5.5980000495910645,-51.63199996948242 0.44600000977516174,-50.49100112915039 C-3.490000009536743,-49.61899948120117 -4.415999889373779,-46.388999938964844 -8.555000305175781,-36.54800033569336 C-29.173999786376953,12.47599983215332 -49.064998626708984,51.85200119018555 -49.064998626708984,51.85200119018555 C-50.37799835205078,41.999000549316406 -50.94300079345703,32.220001220703125 -50.96099853515625,22.656999588012695 C-50.992000579833984,6.561999797821045 -78.22100067138672,9.005000114440918 -78.21399688720703,22.316999435424805 C-78.20700073242188,34.55099868774414 -77.64900207519531,48.053001403808594 -75.77799987792969,57.097999572753906 C-74.38999938964844,63.80699920654297 -72.83200073242188,65.39199829101562 -69.9990005493164,67.14700317382812 C-67.16600036621094,68.90299987792969 -55.00400161743164,70.47699737548828 -50.28799819946289,70.47699737548828 C-44.93299865722656,70.47699737548828 -40.02899932861328,69.03500366210938 -35.95000076293945,62.04199981689453 C-27.31399917602539,47.236000061035156 -20.39699935913086,32.448001861572266 -7.328999996185303,3.9649999141693115 C-5.982999801635742,41.07699966430664 -0.7459999918937683,70.20800018310547 25.329999923706055,70.20800018310547 C59.89099884033203,70.20800018310547 82.1989974975586,-16.139999389648438 82.1989974975586,-57.6879997253418 C82.1989974975586,-68.67900085449219 76.75,-70.47699737548828 66.65399932861328,-70.47699737548828z"></path></g></g><g filter="url(#__lottie_element_70)" transform="matrix(2.940000057220459,0,0,2.940000057220459,389.16998291015625,333.260009765625)" opacity="1" style="display: none;"><g opacity="1" transform="matrix(1,0,0,1,79.33499908447266,71.13200378417969)"><path fill="rgb(35,31,31)" fill-opacity="1" d=" M66.65399932861328,-70.47699737548828 C62.22200012207031,-70.47699737548828 58.29100036621094,-70.25599670410156 56.347999572753906,-70.05500030517578 C52.47100067138672,-69.65399932861328 51.15800094604492,-65.97100067138672 51.439998626708984,-62.34600067138672 C55.520999908447266,-9.859000205993652 43.96799850463867,51.222999572753906 30.81800079345703,51.222999572753906 C21.027000427246094,51.222999572753906 18.299999237060547,22.673999786376953 18.299999237060547,-2.7209999561309814 C18.299999237060547,-17.729999542236328 19.156999588012695,-32.185001373291016 19.516000747680664,-44.959999084472656 C19.648000717163086,-49.69900131225586 17.926000595092773,-50.590999603271484 14.501999855041504,-51.00699996948242 C9.312999725341797,-51.637001037597656 5.5980000495910645,-51.63199996948242 0.44600000977516174,-50.49100112915039 C-3.490000009536743,-49.61899948120117 -4.415999889373779,-46.388999938964844 -8.555000305175781,-36.54800033569336 C-29.173999786376953,12.47599983215332 -49.064998626708984,51.85200119018555 -49.064998626708984,51.85200119018555 C-50.37799835205078,41.999000549316406 -77.64900207519531,48.053001403808594 -75.77799987792969,57.097999572753906 C-74.38999938964844,63.80699920654297 -72.83200073242188,65.39199829101562 -69.9990005493164,67.14700317382812 C-67.16600036621094,68.90299987792969 -55.00400161743164,70.47699737548828 -50.28799819946289,70.47699737548828 C-44.93299865722656,70.47699737548828 -40.02899932861328,69.03500366210938 -35.95000076293945,62.04199981689453 C-27.31399917602539,47.236000061035156 -20.39699935913086,32.448001861572266 -7.328999996185303,3.9649999141693115 C-5.982999801635742,41.07699966430664 -0.7459999918937683,70.20800018310547 25.329999923706055,70.20800018310547 C59.89099884033203,70.20800018310547 82.1989974975586,-16.139999389648438 82.1989974975586,-57.6879997253418 C82.1989974975586,-68.67900085449219 76.75,-70.47699737548828 66.65399932861328,-70.47699737548828z"></path></g></g><g filter="url(#__lottie_element_73)" transform="matrix(2.940000057220459,0,0,2.940000057220459,389.16998291015625,333.260009765625)" opacity="1" style="display: none;"><g opacity="1" transform="matrix(1,0,0,1,79.33499908447266,71.13200378417969)"><path fill="rgb(35,31,31)" fill-opacity="1" d=" M66.65399932861328,-70.47699737548828 C62.22200012207031,-70.47699737548828 58.29100036621094,-70.25599670410156 56.347999572753906,-70.05500030517578 C52.47100067138672,-69.65399932861328 51.15800094604492,-65.97100067138672 51.439998626708984,-62.34600067138672 C55.520999908447266,-9.859000205993652 43.96799850463867,51.222999572753906 30.81800079345703,51.222999572753906 C21.027000427246094,51.222999572753906 18.299999237060547,22.673999786376953 18.299999237060547,-2.7209999561309814 C18.299999237060547,-17.729999542236328 19.156999588012695,-32.185001373291016 19.516000747680664,-44.959999084472656 C19.648000717163086,-49.69900131225586 17.926000595092773,-50.590999603271484 14.501999855041504,-51.00699996948242 C9.312999725341797,-51.637001037597656 5.5980000495910645,-51.63199996948242 0.44600000977516174,-50.49100112915039 C-3.490000009536743,-49.61899948120117 -4.415999889373779,-46.388999938964844 -8.555000305175781,-36.54800033569336 C-29.173999786376953,12.47599983215332 -49.064998626708984,51.85200119018555 -49.064998626708984,51.85200119018555 C-53.03099822998047,60.75199890136719 -55.00400161743164,70.47699737548828 -50.28799819946289,70.47699737548828 C-44.93299865722656,70.47699737548828 -40.02899932861328,69.03500366210938 -35.95000076293945,62.04199981689453 C-27.31399917602539,47.236000061035156 -20.39699935913086,32.448001861572266 -7.328999996185303,3.9649999141693115 C-5.982999801635742,41.07699966430664 -0.7459999918937683,70.20800018310547 25.329999923706055,70.20800018310547 C59.89099884033203,70.20800018310547 82.1989974975586,-16.139999389648438 82.1989974975586,-57.6879997253418 C82.1989974975586,-68.67900085449219 76.75,-70.47699737548828 66.65399932861328,-70.47699737548828z"></path></g></g><g filter="url(#__lottie_element_76)" transform="matrix(2.940000057220459,0,0,2.940000057220459,389.16998291015625,333.260009765625)" opacity="1" style="display: none;"><g opacity="1" transform="matrix(1,0,0,1,79.33499908447266,71.13200378417969)"><path fill="rgb(35,31,31)" fill-opacity="1" d=" M66.65399932861328,-70.47699737548828 C62.22200012207031,-70.47699737548828 58.29100036621094,-70.25599670410156 56.347999572753906,-70.05500030517578 C52.47100067138672,-69.65399932861328 51.15800094604492,-65.97100067138672 51.439998626708984,-62.34600067138672 C55.520999908447266,-9.859000205993652 43.96799850463867,51.222999572753906 30.81800079345703,51.222999572753906 C21.027000427246094,51.222999572753906 18.299999237060547,22.673999786376953 18.299999237060547,-2.7209999561309814 C18.299999237060547,-17.729999542236328 19.156999588012695,-32.185001373291016 19.516000747680664,-44.959999084472656 C19.648000717163086,-49.69900131225586 17.926000595092773,-50.590999603271484 14.501999855041504,-51.00699996948242 C9.312999725341797,-51.637001037597656 5.5980000495910645,-51.63199996948242 0.44600000977516174,-50.49100112915039 C-3.490000009536743,-49.61899948120117 -4.415999889373779,-46.388999938964844 -8.555000305175781,-36.54800033569336 C-13.279999732971191,-25.315000534057617 -18.58099937438965,-14.842000007629395 -22.382999420166016,-4.72599983215332 C-28.711999893188477,12.112000465393066 -12.555999755859375,5.820000171661377 -7.328999996185303,3.9649999141693115 C-5.982999801635742,41.07699966430664 -0.7459999918937683,70.20800018310547 25.329999923706055,70.20800018310547 C59.89099884033203,70.20800018310547 82.1989974975586,-16.139999389648438 82.1989974975586,-57.6879997253418 C82.1989974975586,-68.67900085449219 76.75,-70.47699737548828 66.65399932861328,-70.47699737548828z"></path></g></g><g filter="url(#__lottie_element_82)" transform="matrix(2.940000057220459,0,0,2.940000057220459,389.16998291015625,333.260009765625)" opacity="1" style="display: none;"><g opacity="1" transform="matrix(1,0,0,1,79.33499908447266,71.13200378417969)"><path fill="rgb(35,31,31)" fill-opacity="1" d=" M66.65399932861328,-70.47699737548828 C62.22200012207031,-70.47699737548828 58.29100036621094,-70.25599670410156 56.347999572753906,-70.05500030517578 C52.47100067138672,-69.65399932861328 51.15800094604492,-65.97100067138672 51.439998626708984,-62.34600067138672 C55.520999908447266,-9.859000205993652 43.96799850463867,51.222999572753906 30.81800079345703,51.222999572753906 C23.847000122070312,51.222999572753906 20.19099998474121,36.749000549316406 18.85300064086914,19.246999740600586 C18.312000274658203,12.166999816894531 18.14900016784668,4.591000080108643 18.299999237060547,-2.7209999561309814 C18.56599998474121,-15.609000205993652 -10.005000114440918,-20.030000686645508 -7.328999996185303,3.9649999141693115 C-7.054999828338623,11.529999732971191 -6.618000030517578,18.763999938964844 -5.876999855041504,25.48699951171875 C-2.9820001125335693,51.74399948120117 4.568999767303467,70.20800018310547 25.329999923706055,70.20800018310547 C59.89099884033203,70.20800018310547 82.1989974975586,-16.139999389648438 82.1989974975586,-57.6879997253418 C82.1989974975586,-68.67900085449219 76.75,-70.47699737548828 66.65399932861328,-70.47699737548828z"></path></g></g><g filter="url(#__lottie_element_88)" transform="matrix(2.940000057220459,0,0,2.940000057220459,389.16998291015625,333.260009765625)" opacity="1" style="display: none;"><g opacity="1" transform="matrix(1,0,0,1,79.33499908447266,71.13200378417969)"><path fill="rgb(35,31,31)" fill-opacity="1" d=" M66.65399932861328,-70.47699737548828 C62.22200012207031,-70.47699737548828 58.29100036621094,-70.25599670410156 56.347999572753906,-70.05500030517578 C52.47100067138672,-69.65399932861328 51.15800094604492,-65.97100067138672 51.439998626708984,-62.34600067138672 C55.520999908447266,-9.859000205993652 43.96799850463867,51.222999572753906 30.81800079345703,51.222999572753906 C23.847000122070312,51.222999572753906 20.19099998474121,36.749000549316406 18.85300064086914,19.246999740600586 C18.312000274658203,12.166999816894531 -6.618000030517578,18.763999938964844 -5.876999855041504,25.48699951171875 C-2.9820001125335693,51.74399948120117 4.568999767303467,70.20800018310547 25.329999923706055,70.20800018310547 C59.89099884033203,70.20800018310547 82.1989974975586,-16.139999389648438 82.1989974975586,-57.6879997253418 C82.1989974975586,-68.67900085449219 76.75,-70.47699737548828 66.65399932861328,-70.47699737548828z"></path></g></g><g filter="url(#__lottie_element_97)" transform="matrix(2.940000057220459,0,0,2.940000057220459,389.16998291015625,333.260009765625)" opacity="1" style="display: none;"><g opacity="1" transform="matrix(1,0,0,1,79.33499908447266,71.13200378417969)"><path fill="rgb(35,31,31)" fill-opacity="1" d=" M66.65399932861328,-70.47699737548828 C62.22200012207031,-70.47699737548828 58.29100036621094,-70.25599670410156 56.347999572753906,-70.05500030517578 C52.47100067138672,-69.65399932861328 51.15800094604492,-65.97100067138672 51.439998626708984,-62.34600067138672 C55.520999908447266,-9.859000205993652 43.96799850463867,51.222999572753906 30.81800079345703,51.222999572753906 C23.847000122070312,51.222999572753906 4.568999767303467,70.20800018310547 25.329999923706055,70.20800018310547 C59.89099884033203,70.20800018310547 82.1989974975586,-16.139999389648438 82.1989974975586,-57.6879997253418 C82.1989974975586,-68.67900085449219 76.75,-70.47699737548828 66.65399932861328,-70.47699737548828z"></path></g></g><g filter="url(#__lottie_element_112)" transform="matrix(2.940000057220459,0,0,2.940000057220459,389.16998291015625,333.260009765625)" opacity="1" style="display: none;"><g opacity="1" transform="matrix(1,0,0,1,79.33499908447266,71.13200378417969)"><path fill="rgb(35,31,31)" fill-opacity="1" d=" M66.65399932861328,-70.47699737548828 C62.22200012207031,-70.47699737548828 58.29100036621094,-70.25599670410156 56.347999572753906,-70.05500030517578 C52.47100067138672,-69.65399932861328 51.15800094604492,-65.97100067138672 51.439998626708984,-62.34600067138672 C54.76900100708008,-19.527000427246094 47.694000244140625,29.013999938964844 37.83399963378906,45.44200134277344 C35.608001708984375,49.1510009765625 43.27799987792969,63.779998779296875 50.67900085449219,53.58700180053711 C70.40399932861328,26.42300033569336 82.1989974975586,-27.47599983215332 82.1989974975586,-57.6879997253418 C82.1989974975586,-68.67900085449219 76.75,-70.47699737548828 66.65399932861328,-70.47699737548828z"></path></g></g><g filter="url(#__lottie_element_121)" transform="matrix(2.940000057220459,0,0,2.940000057220459,389.16998291015625,333.260009765625)" opacity="1" style="display: none;"><g opacity="1" transform="matrix(1,0,0,1,79.33499908447266,71.13200378417969)"><path fill="rgb(35,31,31)" fill-opacity="1" d=" M66.65399932861328,-70.47699737548828 C62.22200012207031,-70.47699737548828 58.29100036621094,-70.25599670410156 56.347999572753906,-70.05500030517578 C52.47100067138672,-69.65399932861328 51.15800094604492,-65.97100067138672 51.439998626708984,-62.34600067138672 C53.755001068115234,-32.57099914550781 51.040000915527344,-0.029999999329447746 45.85499954223633,22.55699920654297 C43.58399963378906,32.45199966430664 59.78200149536133,38.834999084472656 63.577999114990234,29.81999969482422 C75.43199920654297,1.6679999828338623 82.1989974975586,-34.80500030517578 82.1989974975586,-57.6879997253418 C82.1989974975586,-68.67900085449219 76.75,-70.47699737548828 66.65399932861328,-70.47699737548828z"></path></g></g><g filter="url(#__lottie_element_133)" transform="matrix(2.940000057220459,0,0,2.940000057220459,389.16998291015625,333.260009765625)" opacity="1" style="display: none;"><g opacity="1" transform="matrix(1,0,0,1,79.33499908447266,71.13200378417969)"><path fill="rgb(35,31,31)" fill-opacity="1" d=" M66.65399932861328,-70.47699737548828 C62.22200012207031,-70.47699737548828 58.29100036621094,-70.25599670410156 56.347999572753906,-70.05500030517578 C52.47100067138672,-69.65399932861328 51.15800094604492,-65.97100067138672 51.439998626708984,-62.34600067138672 C52.61199951171875,-47.27399826049805 50.696998596191406,-20.785999298095703 50.314998626708984,-9.651000022888184 C50.02899932861328,-1.3229999542236328 70.8479995727539,10.333000183105469 73.59200286865234,0.017000000923871994 C79.16200256347656,-20.924999237060547 82.1989974975586,-42.356998443603516 82.1989974975586,-57.6879997253418 C82.1989974975586,-68.67900085449219 76.75,-70.47699737548828 66.65399932861328,-70.47699737548828z"></path></g></g><g filter="url(#__lottie_element_139)" transform="matrix(2.940000057220459,0,0,2.940000057220459,389.16998291015625,333.260009765625)" opacity="1" style="display: none;"><g opacity="1" transform="matrix(1,0,0,1,79.33499908447266,71.13200378417969)"><path fill="rgb(35,31,31)" fill-opacity="1" d=" M66.65399932861328,-70.47699737548828 C62.22200012207031,-70.47699737548828 58.29100036621094,-70.25599670410156 56.347999572753906,-70.05500030517578 C52.47100067138672,-69.65399932861328 51.15800094604492,-65.97100067138672 51.439998626708984,-62.34600067138672 C52.08399963378906,-54.05699920654297 51.79600143432617,-42.316001892089844 51.34199905395508,-31.575000762939453 C50.970001220703125,-22.784000396728516 78.15299987792969,-19.222999572753906 79.59200286865234,-28.368000030517578 C81.3030014038086,-39.23699951171875 82.1989974975586,-49.36199951171875 82.1989974975586,-57.6879997253418 C82.1989974975586,-68.67900085449219 76.75,-70.47699737548828 66.65399932861328,-70.47699737548828z"></path></g></g><g filter="url(#__lottie_element_145)" transform="matrix(2.940000057220459,0,0,2.940000057220459,389.16998291015625,333.260009765625)" opacity="1" style="display: none;"><g opacity="1" transform="matrix(1,0,0,1,79.33499908447266,71.13200378417969)"><path fill="rgb(35,31,31)" fill-opacity="1" d=" M66.65399932861328,-70.47699737548828 C62.22200012207031,-70.47699737548828 58.29100036621094,-70.25599670410156 56.347999572753906,-70.05500030517578 C52.47100067138672,-69.65399932861328 51.15800094604492,-65.97100067138672 51.439998626708984,-62.34600067138672 C52.08399963378906,-54.05699920654297 82.1989974975586,-49.36199951171875 82.1989974975586,-57.6879997253418 C82.1989974975586,-68.67900085449219 76.75,-70.47699737548828 66.65399932861328,-70.47699737548828z"></path></g></g></g></g></g></g></svg>